<svg width="44" height="44" viewBox="0 0 44 44" fill="none" xmlns="http://www.w3.org/2000/svg">
<path d="M16.0855 3.14282H11.4561C10.3026 3.14282 7.80406 6.26682 7.05292 7.01482C5.95292 8.11482 4.94092 9.25254 3.96663 10.3651C2.98292 11.484 2.85092 13.178 3.72777 14.3817C4.05149 14.8311 4.40349 15.2711 4.80577 15.6703C5.20492 16.0694 5.64177 16.4245 6.09435 16.7483C7.29492 17.622 8.99206 17.49 10.1109 16.5094C10.1949 16.4371 10.2979 16.3905 10.4077 16.3751C10.5174 16.3597 10.6293 16.3762 10.73 16.4225C10.8306 16.4689 10.9158 16.5432 10.9755 16.6366C11.0351 16.73 11.0667 16.8386 11.0663 16.9494C10.9909 23.7945 10.9815 31.8088 11.2235 37.5791C11.242 38.1638 11.4364 38.7294 11.7812 39.202C12.126 39.6746 12.6052 40.0324 13.1563 40.2285C19.2849 42.35 25.0646 42.1143 31.1241 40.1971C31.7022 40.01 32.2085 39.6491 32.5741 39.1638C32.9397 38.6784 33.1467 38.0921 33.1669 37.4848C33.4058 31.724 33.3995 23.7568 33.3241 16.9494C33.3229 16.8386 33.3539 16.7298 33.4131 16.6362C33.4723 16.5425 33.5573 16.468 33.6579 16.4215C33.7585 16.375 33.8704 16.3586 33.9801 16.3742C34.0898 16.3898 34.1927 16.4367 34.2763 16.5094C35.3952 17.4931 37.0892 17.6251 38.2929 16.7514C38.7502 16.4254 39.181 16.0639 39.5815 15.6703C39.9838 15.2711 40.3358 14.8343 40.6626 14.3817C41.5363 13.178 41.4043 11.484 40.4238 10.3651C39.4495 9.25254 38.4343 8.11482 37.3343 7.01482C36.5926 6.27311 34.1003 3.14282 32.9312 3.14282H27.6135C27.3298 4.46087 26.603 5.64188 25.5541 6.48901C24.5052 7.33614 23.1977 7.79821 21.8495 7.79821C20.5013 7.79821 19.1937 7.33614 18.1449 6.48901C17.096 5.64188 16.3692 4.46087 16.0855 3.14282Z" fill="#D7E0FF"/>
<path d="M16.0855 3.14282H11.4561C10.3026 3.14282 7.80406 6.26682 7.05292 7.01482C5.95292 8.11482 4.94092 9.25254 3.96663 10.3651C2.98292 11.484 2.85092 13.178 3.72777 14.3817C4.05149 14.8311 4.40349 15.2711 4.80577 15.6703C5.20492 16.0694 5.64177 16.4245 6.09435 16.7483C7.29492 17.622 8.99206 17.49 10.1109 16.5094C10.1949 16.4371 10.2979 16.3905 10.4077 16.3751C10.5174 16.3597 10.6293 16.3762 10.73 16.4225C10.8306 16.4689 10.9158 16.5432 10.9755 16.6366C11.0351 16.73 11.0667 16.8386 11.0663 16.9494C10.9909 23.7945 10.9815 31.8088 11.2235 37.5791C11.242 38.1638 11.4364 38.7294 11.7812 39.202C12.126 39.6746 12.6052 40.0324 13.1563 40.2285C19.2849 42.35 25.0646 42.1142 31.1241 40.1971C31.7022 40.01 32.2085 39.6491 32.5741 39.1638C32.9397 38.6784 33.1467 38.0921 33.1669 37.4848C33.4058 31.724 33.3995 23.7568 33.3241 16.9494C33.3229 16.8386 33.3539 16.7298 33.4131 16.6362C33.4723 16.5425 33.5573 16.468 33.6579 16.4215C33.7585 16.375 33.8704 16.3586 33.9801 16.3742C34.0898 16.3898 34.1927 16.4367 34.2763 16.5094C35.3952 17.4931 37.0892 17.6251 38.2929 16.7514C38.7502 16.4254 39.181 16.0639 39.5815 15.6703C39.9838 15.2711 40.3358 14.8343 40.6626 14.3817C41.5363 13.178 41.4043 11.484 40.4238 10.3651C39.4495 9.25254 38.4343 8.11482 37.3343 7.01482C36.5926 6.27311 34.1003 3.14282 32.9312 3.14282H27.6135C27.3298 4.46087 26.603 5.64188 25.5541 6.48901C24.5052 7.33614 23.1977 7.79821 21.8495 7.79821C20.5013 7.79821 19.1937 7.33614 18.1449 6.48901C17.096 5.64188 16.3692 4.46087 16.0855 3.14282Z" stroke="#4147D5" stroke-width="3.14286" stroke-linecap="round" stroke-linejoin="round"/>
</svg>
