<svg width="44" height="44" viewBox="0 0 44 44" fill="none" xmlns="http://www.w3.org/2000/svg">
<path d="M10.1874 41.4034C15.1124 41.4034 17.8827 38.6333 17.8827 33.7082C17.8827 28.7833 15.1124 26.0131 10.1874 26.0131C5.26249 26.0131 2.49219 28.7833 2.49219 33.7082C2.49219 38.6333 5.26249 41.4034 10.1874 41.4034Z" fill="#D7E0FF"/>
<path d="M33.8106 41.4034C38.7355 41.4034 41.5059 38.6333 41.5059 33.7082C41.5059 28.7833 38.7355 26.0131 33.8106 26.0131C28.8855 26.0131 26.1152 28.7833 26.1152 33.7082C26.1152 38.6333 28.8855 41.4034 33.8106 41.4034Z" fill="#D7E0FF"/>
<path d="M10.1874 41.4034C15.1124 41.4034 17.8827 38.6333 17.8827 33.7082C17.8827 28.7833 15.1124 26.0131 10.1874 26.0131C5.26249 26.0131 2.49219 28.7833 2.49219 33.7082C2.49219 38.6333 5.26249 41.4034 10.1874 41.4034Z" stroke="#4147D5" stroke-width="3.17857" stroke-linecap="round" stroke-linejoin="round"/>
<path d="M33.8106 41.4034C38.7355 41.4034 41.5059 38.6333 41.5059 33.7082C41.5059 28.7833 38.7355 26.0131 33.8106 26.0131C28.8855 26.0131 26.1152 28.7833 26.1152 33.7082C26.1152 38.6333 28.8855 41.4034 33.8106 41.4034Z" stroke="#4147D5" stroke-width="3.17857" stroke-linecap="round" stroke-linejoin="round"/>
<path d="M33.8861 33.6079L29.2891 11.261H34.8446C38.6245 11.261 39.3141 14.1553 39.1862 15.6025" stroke="#4147D5" stroke-width="3.17857" stroke-linecap="round" stroke-linejoin="round"/>
<path d="M30.5049 17.9878L10.3281 33.5509" stroke="#4147D5" stroke-width="3.17857" stroke-linecap="round" stroke-linejoin="round"/>
<path d="M15.1582 15.1987L21.5656 24.6518" stroke="#4147D5" stroke-width="3.17857" stroke-linecap="round" stroke-linejoin="round"/>
<path d="M11.832 15.0906H19.0227" stroke="#4147D5" stroke-width="3.17857" stroke-linecap="round" stroke-linejoin="round"/>
</svg>
