<svg width="45" height="44" viewBox="0 0 45 44" fill="none" xmlns="http://www.w3.org/2000/svg">
<path d="M22.0147 2.47412C9.11941 2.47412 1.74754 12.0201 2.53141 21.4444L3.25553 29.5217" stroke="#4147D5" stroke-width="3.13689" stroke-linecap="round" stroke-linejoin="round"/>
<path d="M22.0156 2.47412C34.9108 2.47412 42.2828 12.0201 41.4989 21.4444L40.7749 29.5217" stroke="#4147D5" stroke-width="3.13689" stroke-linecap="round" stroke-linejoin="round"/>
<path d="M28.0081 27.5419C28.3101 24.0902 31.3531 21.5368 34.805 21.8388L35.1513 21.8692C38.6031 22.1711 41.1562 25.2141 40.8544 28.6659L40.2622 35.4353C39.9601 38.8872 36.917 41.4406 33.4655 41.1385L33.1189 41.1081C29.6672 40.8063 27.1139 37.7632 27.4159 34.3114L28.0081 27.5419Z" fill="#D7E0FF"/>
<path d="M3.17171 28.6659C2.86972 25.2141 5.4231 22.1711 8.87483 21.8692L9.22127 21.8388C12.673 21.5368 15.716 24.0902 16.018 27.5419L16.6102 34.3114C16.9122 37.7632 14.3588 40.8063 10.9071 41.1081L10.5607 41.1385C7.10895 41.4406 4.06595 38.8872 3.76396 35.4354L3.17171 28.6659Z" fill="#D7E0FF"/>
<path d="M28.0081 27.5417C28.3101 24.09 31.3531 21.5366 34.805 21.8386L35.1513 21.8689C38.6031 22.1709 41.1562 25.2139 40.8544 28.6656L40.2622 35.4351C39.9601 38.887 36.917 41.4404 33.4655 41.1383L33.1189 41.1079C29.6672 40.8058 27.1139 37.763 27.4159 34.3112L28.0081 27.5417Z" stroke="#4147D5" stroke-width="3.13689" stroke-linecap="round" stroke-linejoin="round"/>
<path d="M3.17171 28.6659C2.86972 25.2141 5.4231 22.1711 8.87483 21.8692L9.22127 21.8388C12.673 21.5368 15.716 24.0902 16.018 27.5419L16.6102 34.3114C16.9122 37.7632 14.3588 40.8063 10.9071 41.1081L10.5607 41.1385C7.10895 41.4406 4.06595 38.8872 3.76396 35.4354L3.17171 28.6659Z" stroke="#4147D5" stroke-width="3.13689" stroke-linecap="round" stroke-linejoin="round"/>
</svg>
