<?xml version="1.0" encoding="UTF-8"?>
<svg version="1.1" xmlns="http://www.w3.org/2000/svg" width="1254" height="1254">
<path d="M0 0 C413.82 0 827.64 0 1254 0 C1254 413.82 1254 827.64 1254 1254 C840.18 1254 426.36 1254 0 1254 C0 840.18 0 426.36 0 0 Z " fill="#3038FC" transform="translate(0,0)"/>
<path d="M0 0 C0.91913573 -0.00453111 1.83827146 -0.00906223 2.78525978 -0.01373065 C5.85429239 -0.02635536 8.92314711 -0.02475552 11.99220276 -0.02310181 C14.19697802 -0.02908816 16.40175119 -0.03589395 18.60652161 -0.04345703 C24.58786967 -0.06111092 30.5691605 -0.06581209 36.5505321 -0.0670886 C40.28828256 -0.06851082 44.02601849 -0.07278172 47.76376534 -0.07808304 C60.13283308 -0.09562544 72.50187025 -0.10492355 84.87094998 -0.10342209 C85.53696437 -0.10334218 86.20297877 -0.10326227 86.88917542 -0.10317993 C87.88942241 -0.10305729 87.88942241 -0.10305729 88.90987641 -0.10293217 C99.71935222 -0.10211907 110.52868875 -0.12126583 121.33812427 -0.14945666 C132.44867245 -0.1782033 143.55916319 -0.19162999 154.66975075 -0.19026911 C160.90296897 -0.18975924 167.13602944 -0.19545714 173.36921501 -0.21662521 C179.23059215 -0.23598793 185.09166069 -0.23614529 190.95304871 -0.22159195 C193.1024629 -0.2195005 195.25189632 -0.22422467 197.40127754 -0.23631287 C200.33900705 -0.25176309 203.2756721 -0.24245836 206.21337891 -0.22705078 C207.0607647 -0.23733791 207.9081505 -0.24762503 208.78121465 -0.25822389 C215.59978478 -0.17937507 220.83290984 1.73188794 225.94752502 6.30258179 C226.49537659 6.97160522 227.04322815 7.64062866 227.60768127 8.32992554 C228.17357971 9.0015271 228.73947815 9.67312866 229.32252502 10.36508179 C232.11375369 14.305164 231.81222239 18.28571889 231.80046654 22.9052496 C231.80240997 23.69456646 231.80435339 24.48388332 231.80635571 25.29711887 C231.81170554 27.96431505 231.80990905 30.63145994 231.80821228 33.29866028 C231.81062902 35.22152755 231.81349088 37.14439431 231.81676161 39.06726032 C231.82453569 44.36921074 231.82613515 49.67114823 231.82681274 54.97310364 C231.82864889 60.68514726 231.83625407 66.39718325 231.84329224 72.10922241 C231.85483231 82.01621341 231.86306941 91.92320269 231.86941147 101.83019829 C231.8797321 117.50004576 231.90029624 133.16987197 231.92253113 148.83970642 C231.93001159 154.20057957 231.93742634 159.56145281 231.9448185 164.92232609 C231.94574351 165.59165777 231.94666851 166.26098945 231.94762155 166.95060391 C231.96962286 182.89157673 231.98940605 198.83255199 232.0080719 214.77352905 C232.00930142 215.81995513 232.00930142 215.81995513 232.01055578 216.88752112 C232.0296183 233.14448417 232.04658216 249.40144711 232.05891418 265.65841675 C232.05944385 266.35642841 232.05997352 267.05444008 232.06051924 267.77360361 C232.06477039 273.39907995 232.0689469 279.02455634 232.07310404 284.65003275 C232.09082166 308.54377886 232.11981775 332.43749088 232.15955317 356.33121067 C232.18290859 370.63045755 232.19694374 384.92965234 232.19888081 399.22891844 C232.2009967 409.04249381 232.21398032 418.85601751 232.23536013 428.66956966 C232.24734045 434.32461749 232.25457319 439.97956278 232.24864769 445.63462257 C232.243307 450.82483305 232.25197978 456.01483537 232.27120407 461.20501126 C232.27573523 463.06999723 232.27537107 464.93500389 232.26925568 466.79998534 C232.17440618 498.59608725 239.64035683 530.25560273 258.67018127 556.26742554 C259.07961975 556.83477417 259.48905823 557.4021228 259.91090393 557.98666382 C285.81121562 593.49946232 324.99444868 614.69116652 367.67018127 623.26742554 C368.37972961 623.41067261 369.08927795 623.55391968 369.82032776 623.70150757 C394.82307424 628.43467445 422.53691574 628.00368525 447.67018127 624.26742554 C448.42025452 624.1655896 449.17032776 624.06375366 449.94313049 623.95883179 C460.53335764 622.51257948 470.58359642 620.09929818 480.76393127 616.86410522 C482.47456342 616.32865633 484.19682972 615.83071601 485.92018127 615.33773804 C518.23634446 606.02210936 547.85077699 589.65159473 573.67018127 568.26742554 C574.67565002 567.44758179 575.68111877 566.62773804 576.71705627 565.78305054 C584.85891667 559.07596578 592.32312376 551.83092664 599.67018127 544.26742554 C601.11752563 548.10512505 600.18406057 550.64875187 598.93971252 554.46664429 C598.54848206 555.67642944 598.15725159 556.8862146 597.75416565 558.13265991 C597.54493469 558.76131958 597.33570374 559.38997925 597.12013245 560.03768921 C596.49179277 561.92752124 595.88065628 563.82304497 595.26979065 565.71859741 C593.0744732 572.43263961 590.6457805 578.86835339 587.67018127 585.26742554 C586.78970676 587.28123141 585.91377375 589.29702627 585.04127502 591.31430054 C571.06113819 623.36166338 554.40573627 653.52885829 531.67018127 680.26742554 C530.88514221 681.23680054 530.10010315 682.20617554 529.29127502 683.20492554 C522.53681782 691.45121914 515.12098074 699.03170935 507.60768127 706.57992554 C507.10106964 707.09171356 506.59445801 707.60350159 506.07249451 708.13079834 C499.27834444 714.9795993 492.26406184 721.29582395 484.67018127 727.26742554 C483.96111633 727.83582153 483.25205139 728.40421753 482.52149963 728.98983765 C452.30175492 753.12456891 418.20168926 770.00510118 381.67018127 782.26742554 C380.79071838 782.57164429 379.91125549 782.87586304 379.00514221 783.18930054 C356.33778998 790.99356959 331.11609698 795.36981134 307.16236877 795.47055054 C306.07924408 795.47625061 304.99611938 795.48195068 303.88017273 795.48782349 C301.59257466 795.4972237 299.30496335 795.50378752 297.01734924 795.50765991 C293.60319166 795.51726238 290.18966418 795.54829141 286.77565002 795.57992554 C213.99442704 795.93130769 139.22761371 765.66749073 86.56471252 715.25180054 C85.45310814 714.12239013 84.34730602 712.98722988 83.24830627 711.84555054 C81.60999546 710.20723972 79.8884763 708.74892728 78.10768127 707.26742554 C61.61081748 693.00850839 48.07947481 675.05711045 35.67018127 657.26742554 C34.97529602 656.27259155 34.97529602 656.27259155 34.26637268 655.25765991 C28.2899449 646.64386117 22.88971764 637.79279255 17.91236877 628.56674194 C17.04369846 626.95881407 16.16812203 625.35460666 15.28736877 623.75326538 C7.35358127 609.29902885 0.77213111 594.53942808 -5.19456482 579.17269897 C-6.12631018 576.78823235 -7.08447455 574.41979783 -8.06809998 572.05648804 C-15.14721725 554.46364134 -19.50560263 535.3956952 -23.20481873 516.82992554 C-23.39568054 515.89938354 -23.58654236 514.96884155 -23.78318787 514.01010132 C-28.40838696 489.42759777 -27.63189172 464.29593764 -27.62058616 439.4026984 C-27.62017402 433.72940357 -27.63125364 428.05612841 -27.64070129 422.38284302 C-27.65721924 411.30274918 -27.6628064 400.22267664 -27.66392605 389.14257152 C-27.6648797 380.13908593 -27.66900568 371.13560732 -27.6753273 362.13212395 C-27.69005201 340.72391109 -27.70238007 319.31570505 -27.70133018 297.90748692 C-27.70129903 297.22507701 -27.70126787 296.5426671 -27.70123577 295.8395781 C-27.70106958 292.38155541 -27.7008715 288.92353271 -27.70066635 285.46551002 C-27.70062646 284.77883647 -27.70058657 284.09216292 -27.70054547 283.38468108 C-27.7004646 281.99607226 -27.700381 280.60746345 -27.70029469 279.21885463 C-27.69906677 257.57152532 -27.71413786 235.92425847 -27.74143982 214.27694702 C-27.77215605 189.91296832 -27.78934775 165.54904108 -27.78751338 141.18503994 C-27.78684929 128.29878739 -27.79235156 115.41260546 -27.81386948 102.52636909 C-27.8320491 91.57010803 -27.83645408 80.6139497 -27.82285063 69.6576801 C-27.81630842 64.06874679 -27.81624982 58.48001082 -27.83355713 52.89109612 C-27.84923411 47.77628828 -27.84647939 42.66183519 -27.82898887 37.54703628 C-27.82590745 35.69631351 -27.82959412 33.8455646 -27.84070902 31.99487264 C-27.85481745 29.47936516 -27.84425466 26.96510447 -27.82759666 24.44963932 C-27.83753302 23.73120929 -27.84746938 23.01277926 -27.85770684 22.27257863 C-27.77015357 16.01935598 -25.60180523 11.01075656 -21.65403748 6.24398804 C-21.11392029 5.79797241 -20.5738031 5.35195679 -20.01731873 4.89242554 C-19.48493591 4.43094116 -18.9525531 3.96945679 -18.40403748 3.49398804 C-12.60613737 0.06547461 -6.54199737 -0.02384829 0 0 Z " fill="#FDFDFD" transform="translate(342.32981872558594,226.73257446289063)"/>
<path d="M0 0 C4.44987875 2.8687863 8.04665451 6.5876395 11.66015625 10.4296875 C13.71962886 12.52252417 15.77274364 14.41554029 17.99609375 16.3203125 C23.94810804 21.46547494 29.37302157 27.14098401 34.890625 32.7421875 C39.23646083 37.12801569 43.63400779 41.33729182 48.3203125 45.35546875 C52.96936238 49.48491893 57.24400904 54.02121056 61.6015625 58.453125 C65.7579402 62.65235196 69.99203684 66.65714156 74.47265625 70.5078125 C77.72675411 73.36810234 80.71448743 76.48308598 83.734375 79.5859375 C86.43374972 82.32885052 89.19940505 84.93346399 92.109375 87.453125 C96.72943215 91.45776065 101.17423835 95.6183862 105.5625 99.875 C106.35140625 100.60976563 107.1403125 101.34453125 107.953125 102.1015625 C108.71625 102.84664063 109.479375 103.59171875 110.265625 104.359375 C110.94786133 105.01131836 111.63009766 105.66326172 112.33300781 106.33496094 C118.51524919 115.04865783 118.89191519 124.51019414 118.82043457 134.85527039 C118.82505154 136.32179612 118.83140977 137.78831721 118.83934355 139.25482875 C118.85595193 143.2581741 118.84782944 147.26113518 118.83539867 151.26448143 C118.82631507 155.59254029 118.84033454 159.92053499 118.85131836 164.24858093 C118.8690752 172.71814953 118.86527559 181.18757608 118.8536678 189.65715017 C118.84461959 196.54558785 118.84341548 203.43398583 118.84776306 210.32242775 C118.84837599 211.3043464 118.84898893 212.28626504 118.84962043 213.2979388 C118.8508994 215.29300223 118.85219625 217.28806566 118.8535108 219.28312907 C118.86490907 237.9788525 118.85181626 256.6744974 118.83030933 275.37020794 C118.81245301 291.38771382 118.81553183 307.40510366 118.83398438 323.42260742 C118.8554285 342.0454996 118.86379583 360.66832292 118.85153532 379.29122573 C118.85026121 381.28031495 118.84900372 383.26940418 118.84776306 385.25849342 C118.84683741 386.72628392 118.84683741 386.72628392 118.84589306 388.22372675 C118.84244973 395.09576422 118.84824679 401.96775777 118.85768127 408.83978844 C118.86894268 417.22660408 118.86577522 425.61327013 118.8445583 434.00006881 C118.83410116 438.27349836 118.82983381 442.54667922 118.84315491 446.82010651 C118.85519739 450.74295738 118.84832441 454.66533239 118.8272447 458.58814094 C118.82282804 459.99656192 118.82493159 461.4050243 118.83474785 462.81341799 C118.92817454 477.34918216 116.34140544 490.81152785 108.3125 503.125 C107.43271484 504.51138672 107.43271484 504.51138672 106.53515625 505.92578125 C100.01358727 515.56810103 91.83973013 522.10318417 81.625 527.5 C81.03912109 527.82186279 80.45324219 528.14372559 79.84960938 528.4753418 C67.40690845 534.64609891 52.78652419 534.56972826 39.22314453 534.52905273 C37.47348092 534.53477174 35.72382104 534.54174184 33.97416687 534.54985046 C29.27412462 534.56761767 24.57427069 534.56664614 19.87420511 534.56090808 C15.93508618 534.5577955 11.99600236 534.56393074 8.05688846 534.56994683 C-1.23619327 534.58393324 -10.52918293 534.58247703 -19.82226562 534.57104492 C-29.38598082 534.55953945 -38.94941637 534.57369353 -48.51309478 534.6004414 C-56.75556364 534.62262451 -64.99794486 534.62923077 -73.24044144 534.62336498 C-78.15008711 534.6200041 -83.0595531 534.62235398 -87.96917343 534.63961601 C-92.58067881 534.65512739 -97.19176964 534.65108334 -101.8032589 534.63231087 C-103.48903133 534.62863814 -105.17483481 534.63169483 -106.86057854 534.64219666 C-124.54411913 534.7439075 -124.54411913 534.7439075 -131.6875 530.125 C-137.38860668 524.24671951 -139.93417777 518.5611801 -139.94756222 510.33759785 C-139.95136789 509.66454024 -139.95517356 508.99148263 -139.95909455 508.29802933 C-139.96941662 506.03839607 -139.96550308 503.77901373 -139.96165466 501.5193634 C-139.96610674 499.88462681 -139.97142069 498.24989238 -139.97752339 496.61516112 C-139.99171755 492.1193226 -139.99336641 487.62355316 -139.99292648 483.12769544 C-139.99457345 478.28022476 -140.00763775 473.43278265 -140.01911926 468.58532715 C-140.04197807 457.98405063 -140.04989086 447.38279411 -140.05494571 436.78149629 C-140.05820179 430.16224192 -140.06472374 423.54299337 -140.0719471 416.92374229 C-140.0915144 398.59761269 -140.10791777 380.27148851 -140.11082363 361.94534779 C-140.1110112 360.77239734 -140.11119877 359.5994469 -140.11139202 358.39095251 C-140.11175828 356.01308103 -140.11212197 353.63520956 -140.11248314 351.25733808 C-140.11266595 350.07695509 -140.11284876 348.8965721 -140.11303711 347.68041992 C-140.11321766 346.49859647 -140.11339821 345.31677302 -140.11358423 344.09913673 C-140.11712591 324.94907515 -140.14414741 305.79912602 -140.181535 286.64910344 C-140.21961146 266.98893508 -140.23898106 247.32882253 -140.23928314 227.66861647 C-140.23986787 216.62977331 -140.24836985 205.59106428 -140.27728081 194.55225563 C-140.30178583 185.15246407 -140.30908349 175.75285554 -140.29403328 166.35304067 C-140.28686076 161.55782714 -140.28773668 156.76297512 -140.31044388 151.96780205 C-140.33104631 147.57497576 -140.32842181 143.18278862 -140.30756903 138.78996917 C-140.30407655 137.20380912 -140.30897399 135.61760285 -140.32327347 134.03150342 C-140.41362462 123.316131 -139.16077463 115.14889249 -131.99389648 106.8301239 C-131.02812836 105.8502575 -130.04915722 104.88326009 -129.05859375 103.9284668 C-128.51969513 103.38883804 -127.98079651 102.84920929 -127.42556763 102.29322815 C-125.67031526 100.54141274 -123.89812679 98.80792314 -122.125 97.07421875 C-120.88749311 95.8460602 -119.65110242 94.61677603 -118.41577148 93.38642883 C-115.18020149 90.16982258 -111.92991362 86.96850945 -108.67614746 83.77032471 C-105.37141127 80.5168098 -102.08082365 77.2490546 -98.7890625 73.98242188 C-93.47146897 68.70859835 -88.1455929 63.44332428 -82.80789185 58.18984985 C-80.5168563 55.93397394 -78.23450861 53.67055912 -75.96459961 51.39338684 C-73.33623569 48.77507971 -70.56820327 46.37785924 -67.75 43.96875 C-63.22595426 39.92452729 -59.06162923 35.47516269 -54.8117981 31.146698 C-51.65315736 27.9344736 -48.48386049 24.73285212 -45.31396484 21.53173828 C-43.64629641 19.84388725 -41.98222646 18.15247317 -40.32177734 16.45751953 C-37.91407842 14.00119949 -35.49359899 11.5581189 -33.0703125 9.1171875 C-32.33467072 8.36090057 -31.59902893 7.60461365 -30.84109497 6.82540894 C-22.49211899 -1.52714963 -11.39981278 -5.71003056 0 0 Z " fill="#FDFCFD" transform="translate(830.6875,241.875)"/>
<path d="M0 0 C0.77859375 0.55429687 1.5571875 1.10859375 2.359375 1.6796875 C3.01421875 2.08960938 3.6690625 2.49953125 4.34375 2.921875 C11.24490765 7.83818642 15.47660242 16.86660897 16.97265625 25.0234375 C17.3778404 34.5626301 14.50411562 44.13928978 8.546875 51.6796875 C5.25941617 55.07644803 1.5378443 57.50688346 -2.640625 59.6796875 C-3.24519531 60.00066406 -3.84976563 60.32164062 -4.47265625 60.65234375 C-12.09479527 64.10236457 -21.18062985 63.9169777 -28.953125 61.0546875 C-38.9706146 56.39501244 -45.52212022 49.68779993 -49.515625 39.3046875 C-52.00969909 30.76842201 -51.32735841 21.75912456 -47.640625 13.6796875 C-42.66712923 5.54841664 -35.63552896 -1.18413521 -26.31640625 -3.83984375 C-16.66111266 -5.573568 -8.37776405 -5.37862367 0 0 Z " fill="#323AFB" transform="translate(836.640625,327.3203125)"/>
<path d="M0 0 C34.32 0 68.64 0 104 0 C104 0.33 104 0.66 104 1 C102.92363281 1.17015625 101.84726563 1.3403125 100.73828125 1.515625 C70.26484041 6.49224055 42.0666767 20.9418877 23.5 46.37109375 C17.1642406 55.35299285 12.25174024 64.87657013 8 75 C7.7326001 75.63115723 7.4652002 76.26231445 7.18969727 76.91259766 C5.02439828 82.31459946 3.87865353 87.79172274 2.8125 93.5 C2.54663086 94.87671875 2.54663086 94.87671875 2.27539062 96.28125 C1.84401904 98.51971875 1.41903066 100.75919433 1 103 C0.67 103 0.34 103 0 103 C0 69.01 0 35.02 0 0 Z " fill="#000002" transform="translate(0,0)"/>
<path d="M0 0 C1.87105788 3.74211576 2.28457974 5.54899556 2.6875 9.5625 C6.47591695 35.58601027 22.42761621 62.40817107 43.1484375 78.5546875 C60.6304183 91.12647515 78.70515566 99.33156043 100 103 C100 103.33 100 103.66 100 104 C67 104 34 104 0 104 C0 69.68 0 35.36 0 0 Z " fill="#000002" transform="translate(0,1150)"/>
<path d="M0 0 C33.99 0 67.98 0 103 0 C103 31.35 103 62.7 103 95 C102.67 95 102.34 95 102 95 C101.86013672 94.44763672 101.72027344 93.89527344 101.57617188 93.32617188 C93.28362196 61.14254568 76.59415128 34.96943555 48.3125 16.875 C43.59173861 14.15627768 38.65074925 11.92148273 33.6875 9.6875 C32.90995361 9.3373584 32.13240723 8.9872168 31.33129883 8.62646484 C27.57678792 6.9800844 24.09652519 5.56419209 20 5 C20 4.34 20 3.68 20 3 C19.2265625 2.93941406 18.453125 2.87882813 17.65625 2.81640625 C11.74750457 2.34107401 5.87491859 1.79085443 0 1 C0 0.67 0 0.34 0 0 Z " fill="#000002" transform="translate(1151,0)"/>
<path d="M0 0 C0.33 0 0.66 0 1 0 C1 32.34 1 64.68 1 98 C-30.35 98 -61.7 98 -94 98 C-91.13491655 96.08994437 -89.51672611 95.52213526 -86.25 94.75 C-69.39091302 90.29121515 -53.11628371 82.54851242 -40 71 C-39.19304687 70.33613281 -38.38609375 69.67226562 -37.5546875 68.98828125 C-16.46328086 51.10356183 -5.9979496 26.38036238 0 0 Z " fill="#000003" transform="translate(1253,1156)"/>
<path d="M0 0 C5.28 0.99 10.56 1.98 16 3 C16 3.33 16 3.66 16 4 C11.05 4 6.1 4 1 4 C0.67 2.68 0.34 1.36 0 0 Z " fill="#070A30" transform="translate(84,1250)"/>
<path d="M0 0 C0.33 0 0.66 0 1 0 C1.33 4.29 1.66 8.58 2 13 C1.01 12.67 0.02 12.34 -1 12 C-1.02687279 10.18757948 -1.04633715 8.37504767 -1.0625 6.5625 C-1.07410156 5.55316406 -1.08570313 4.54382813 -1.09765625 3.50390625 C-1 1 -1 1 0 0 Z " fill="#3D45F9" transform="translate(787,350)"/>
<path d="M0 0 C0.66 0 1.32 0 2 0 C2 0.99 2 1.98 2 3 C2.66 3.33 3.32 3.66 4 4 C2.80100302 7.0831351 1.52299523 10.06279492 0 13 C-0.96661363 9.87819599 -0.98988909 7.47916205 -0.5625 4.25 C-0.46066406 3.45078125 -0.35882812 2.6515625 -0.25390625 1.828125 C-0.17011719 1.22484375 -0.08632813 0.6215625 0 0 Z " fill="#4448FB" transform="translate(942,770)"/>
<path d="M0 0 C0.33 0.99 0.66 1.98 1 3 C-0.98 4.98 -2.96 6.96 -5 9 C-5.99 8.67 -6.98 8.34 -8 8 C-5.36 5.36 -2.72 2.72 0 0 Z " fill="#4348F9" transform="translate(851,931)"/>
<path d="M0 0 C-0.33 0.66 -0.66 1.32 -1 2 C-4.3 2 -7.6 2 -11 2 C-6.98764085 -0.6749061 -4.6342454 -1.48957888 0 0 Z " fill="#06071D" transform="translate(1170,1252)"/>
<path d="M0 0 C0.93423645 3.01031744 1.04449911 3.86650268 0 7 C-0.34820041 8.66362417 -0.68404492 10.32995171 -1 12 C-2.1875 10.5 -2.1875 10.5 -3 8 C-2.27101296 5.21175762 -1.1843275 2.62334908 0 0 Z " fill="#4952FA" transform="translate(934,800)"/>
<path d="M0 0 C0 0.99 0 1.98 0 3 C-2.875 3.625 -2.875 3.625 -6 4 C-6.66 3.34 -7.32 2.68 -8 2 C-2.25 0 -2.25 0 0 0 Z " fill="#4B55FA" transform="translate(741,1003)"/>
<path d="M0 0 C0.33 0.99 0.66 1.98 1 3 C-2.80504787 4.79682816 -3.70600835 5.07349791 -8 4 C-5.36 2.68 -2.72 1.36 0 0 Z " fill="#3B45F9" transform="translate(781,984)"/>
<path d="M0 0 C0.33 0.66 0.66 1.32 1 2 C1.66 2.33 2.32 2.66 3 3 C1.625 5 1.625 5 0 7 C-0.66 7 -1.32 7 -2 7 C-1.125 2.25 -1.125 2.25 0 0 Z " fill="#4F56FA" transform="translate(923,826)"/>
<path d="M0 0 C3.3 0.33 6.6 0.66 10 1 C9.67 1.99 9.34 2.98 9 4 C6.03 3.01 3.06 2.02 0 1 C0 0.67 0 0.34 0 0 Z " fill="#2832D6" transform="translate(71,1245)"/>
<path d="M0 0 C0.66 0.33 1.32 0.66 2 1 C-3.14285714 6.57142857 -3.14285714 6.57142857 -7 7 C-4.66666667 4.66666667 -2.33333333 2.33333333 0 0 Z " fill="#3E45F8" transform="translate(836,945)"/>
<path d="M0 0 C1.96301592 3.50538557 2.95902388 7.13351728 4 11 C2 9.4375 2 9.4375 0 7 C-0.25 3.25 -0.25 3.25 0 0 Z " fill="#595FFC" transform="translate(326,773)"/>
</svg>
