<?xml version="1.0" encoding="UTF-8"?>
<svg version="1.1" xmlns="http://www.w3.org/2000/svg" width="1254" height="1254">
<path d="M0 0 C413.82 0 827.64 0 1254 0 C1254 413.82 1254 827.64 1254 1254 C840.18 1254 426.36 1254 0 1254 C0 840.18 0 426.36 0 0 Z " fill="#FDFDFD" transform="translate(0,0)"/>
<path d="M0 0 C0.86348627 -0.00438225 1.72697255 -0.00876451 2.61662507 -0.01327956 C5.51527261 -0.02665345 8.41388976 -0.03284323 11.31256104 -0.03897095 C13.38881568 -0.04687293 15.46506896 -0.05514195 17.5413208 -0.06375122 C24.36381725 -0.08995702 31.18631979 -0.10527601 38.0088501 -0.11953735 C40.35758722 -0.12489736 42.7063243 -0.13027487 45.05506134 -0.13566971 C54.8242375 -0.15729504 64.59341201 -0.17603229 74.36260605 -0.1872921 C88.36364178 -0.20353581 102.36440022 -0.23672809 116.36533141 -0.29369295 C126.21004166 -0.33238271 136.0546777 -0.35192358 145.89946198 -0.35721266 C151.77955405 -0.36086699 157.65935026 -0.3728977 163.53936005 -0.4053154 C169.07160406 -0.43537924 174.60337289 -0.44171363 180.13568115 -0.42993164 C182.16416444 -0.42971078 184.19266967 -0.43802629 186.22107697 -0.45558548 C188.99496051 -0.47828776 191.76712243 -0.46997734 194.54101562 -0.45410156 C195.33986545 -0.46798365 196.13871528 -0.48186574 196.96177268 -0.49616849 C202.73648876 -0.41497872 207.30040976 1.08916678 211.5244751 5.15390015 C215.01113083 10.23355339 216.02441645 13.50909914 216.02390385 19.78695297 C216.03201129 20.89725879 216.03201129 20.89725879 216.04028252 22.02999502 C216.05352074 24.50635262 216.03833463 26.98170329 216.02326965 29.45803833 C216.02699738 31.25308068 216.03248734 33.0481201 216.03958648 34.84315228 C216.05403937 39.77325196 216.0436656 44.70303568 216.02930343 49.63312411 C216.01819198 54.95176786 216.03018161 60.27036435 216.03948975 65.58900452 C216.05258647 74.80732886 216.05141127 84.02556253 216.04089546 93.24388885 C216.02595197 106.59272589 216.03587451 119.94145666 216.05241465 133.29028764 C216.07888579 154.97513399 216.08973436 176.6599565 216.08868408 198.34481812 C216.0885966 200.29175248 216.0885966 200.29175248 216.08850735 202.27801886 C216.08824154 207.53611978 216.08792427 212.79422069 216.08754409 218.0523216 C216.08657916 232.50105774 216.08790369 246.94979316 216.09063721 261.39852905 C216.0908771 262.6912644 216.09111699 263.98399974 216.09136415 265.31590888 C216.09577762 286.90512084 216.1120407 308.49431074 216.135858 330.08350968 C216.14989984 343.38959 216.15283439 356.69558621 216.14123511 370.00166938 C216.13388723 379.13118337 216.13700734 388.26065515 216.14819355 397.39016512 C216.15424012 402.65020178 216.15542734 407.91012006 216.14331627 413.17014885 C216.13226769 417.9980727 216.13528876 422.82578796 216.14885973 427.65370348 C216.15132884 429.38800697 216.14886327 431.12232716 216.14058585 432.85661265 C215.98292273 468.21285031 226.63814299 503.28521283 251.5244751 529.15390015 C252.67680936 530.50253914 253.82295619 531.85649673 254.9619751 533.21640015 C281.06626344 562.95621723 324.20170012 579.96483663 363.1494751 582.8999939 C385.80112227 584.12575196 407.39279589 583.74499156 429.62261963 578.79013062 C432.1764638 578.23020146 434.72771714 577.73803339 437.30181885 577.2828064 C478.87137426 569.61459075 518.53614619 546.2637981 548.1260376 516.5406189 C551.11807622 513.56319935 554.30041971 510.87222135 557.5244751 508.15390015 C544.91820342 551.07042557 525.20860212 591.63924277 496.5244751 626.15390015 C495.70076416 627.16323608 494.87705322 628.17257202 494.02838135 629.2124939 C482.27902313 643.4083282 469.2277754 657.00524387 454.5244751 668.15390015 C453.24208018 669.16286331 451.96093279 670.17341319 450.6807251 671.18515015 C434.27909568 684.05786916 416.94602863 694.43040347 398.5244751 704.15390015 C397.84223877 704.52031616 397.16000244 704.88673218 396.45709229 705.26425171 C388.33881264 709.62176299 380.11253692 712.88453222 371.4072876 715.81796265 C368.42376024 716.82573821 365.53804784 717.95831097 362.6494751 719.21640015 C356.2962472 721.84342691 349.56592418 723.32742744 342.9151001 725.00546265 C340.42031853 725.63717266 338.05694064 726.31898644 335.6260376 727.17733765 C300.44693758 738.25388047 253.62909824 738.35982908 218.300354 728.85458374 C214.53284289 727.90359369 210.73611622 727.28071907 206.8994751 726.6812439 C204.49113356 726.14649701 202.71430535 725.26179846 200.5244751 724.15390015 C198.99380021 723.79137188 197.44998677 723.48155279 195.8994751 723.21640015 C172.03232435 718.70193908 148.18454884 706.5996653 127.5244751 694.15390015 C126.92167725 693.79119019 126.31887939 693.42848022 125.69781494 693.05477905 C109.55032989 683.22255519 94.50040923 671.86666026 80.5244751 659.15390015 C79.87817139 658.5693103 79.23186768 657.98472046 78.565979 657.38241577 C70.78653492 650.32233652 63.36762144 643.13957532 56.5244751 635.15390015 C55.60771457 634.12157591 54.6896656 633.09039495 53.77056885 632.06015015 C15.83321897 589.17145277 -9.94918421 533.65532068 -19.6630249 477.27890015 C-19.8181958 476.38316284 -19.9733667 475.48742554 -20.13323975 474.56454468 C-20.63791752 471.4335612 -21.0597893 468.29802951 -21.4755249 465.15390015 C-21.73027305 463.28770979 -21.73027305 463.28770979 -21.99016762 461.38381863 C-24.24858708 442.80415492 -23.77543795 424.04810619 -23.76629233 405.36644781 C-23.7658803 400.10488377 -23.77695888 394.84334096 -23.78640747 389.58178711 C-23.80292714 379.30554247 -23.80851264 369.0293208 -23.80963223 358.75306398 C-23.81058574 350.4035941 -23.81471107 342.05413173 -23.82103348 333.70466423 C-23.8386108 310.00865078 -23.8478763 286.31265535 -23.84637253 262.61663533 C-23.84629262 261.34269004 -23.84621271 260.06874476 -23.84613037 258.75619507 C-23.84604861 257.4806895 -23.84596685 256.20518392 -23.84588261 254.89102667 C-23.84506772 234.16793348 -23.86426546 213.44491262 -23.8924071 192.72184039 C-23.92110559 171.42040767 -23.9349495 150.1190103 -23.93321955 128.81755775 C-23.93255525 116.86695823 -23.93806704 104.91643483 -23.95957565 92.96585274 C-23.97774604 82.80585171 -23.98216789 72.64596146 -23.96855681 62.48595125 C-23.96201003 57.30232731 -23.96197227 52.11891619 -23.97926331 46.93531227 C-23.99492028 42.19307144 -23.99220645 37.45121353 -23.97469504 32.70898246 C-23.97160917 30.9914781 -23.97531686 29.27394567 -23.98641519 27.5564744 C-24.00048452 25.22538777 -23.98999243 22.89565425 -23.97330284 20.5646143 C-23.97395495 18.62119352 -23.97395495 18.62119352 -23.97462022 16.63851172 C-23.18434368 11.12091481 -20.16260962 7.37187385 -15.9755249 3.84140015 C-15.4083374 3.35026733 -14.8411499 2.85913452 -14.2567749 2.3531189 C-9.99176122 -0.51828286 -4.95545616 0.0030536 0 0 Z " fill="#2E2EFB" transform="translate(364.47552490234375,252.84609985351563)"/>
<path d="M0 0 C8.44559264 6.71417061 15.95394086 14.76772142 23.57177734 22.38647461 C25.65053499 24.46300766 27.73722045 26.53136241 29.82421875 28.59960938 C31.14632021 29.91878305 32.46795286 31.2384268 33.7890625 32.55859375 C34.41390533 33.17625107 35.03874817 33.79390839 35.68252563 34.43028259 C40 38.77112877 40 38.77112877 40 41 C40.55642685 41.21854645 41.1128537 41.4370929 41.68614197 41.66226196 C44.76776224 43.44387544 46.66912396 45.7344939 49.02172852 48.40380859 C54.18242833 54.1703588 59.57564009 59.63475846 65.1153698 65.03770828 C67.81671498 67.67644915 70.50131617 70.33219223 73.18945312 72.984375 C76.57407511 76.32112833 79.96327408 79.65289546 83.36743164 82.96972656 C86.15548619 85.68712923 88.92830241 88.41930535 91.69189644 91.1615715 C92.73536394 92.19157561 93.78418539 93.21618846 94.83869743 94.23488235 C96.31440558 95.66172471 97.76980501 97.10682325 99.22241211 98.55712891 C100.46504066 99.77524765 100.46504066 99.77524765 101.73277283 101.01797485 C108.07460318 109.35921997 108.57734603 117.83826424 108.50120544 128.0295105 C108.50510439 129.43202658 108.51074957 130.83453871 108.51797634 132.23704159 C108.53266434 136.06795828 108.52258973 139.89846112 108.50823963 143.72936416 C108.49709539 147.86989929 108.50908391 152.01037801 108.51808167 156.15090942 C108.53199343 164.25365081 108.52447286 172.35623603 108.50940608 180.45896994 C108.49251655 189.90278216 108.49576005 199.3465558 108.49950016 208.79037847 C108.50537514 225.64657937 108.49122229 242.50270552 108.46655273 259.35888672 C108.44264069 275.69941003 108.43554599 292.03983343 108.44604492 308.38037109 C108.45746672 326.18907519 108.459368 343.99773311 108.44494683 361.80643666 C108.44342105 363.7072831 108.4419007 365.60812954 108.44038582 367.50897598 C108.439628 368.44413505 108.43887019 369.37929412 108.43808941 370.34279134 C108.43335574 376.91862729 108.43519156 383.49444255 108.43945122 390.07027817 C108.44438947 398.09050553 108.43834221 406.11063862 108.41855692 414.13084446 C108.40871765 418.21943378 108.40354318 422.30787989 108.41144943 426.39647675 C108.41855093 430.14577103 108.4115983 433.89477747 108.3938458 437.64403404 C108.38794059 439.62894672 108.39658086 441.61388662 108.40589231 443.59878623 C108.32987425 454.4258527 106.89856809 464.1776373 100.75 473.25 C100.35159912 473.83789307 99.95319824 474.42578613 99.54272461 475.03149414 C89.90854097 489.02046004 76.8774545 498.94800464 59.93520927 502.57797241 C53.31184033 503.53028762 46.56776088 503.31389428 39.88891602 503.32226562 C38.15998925 503.33153569 36.43106652 503.34158684 34.70214844 503.35235596 C30.02654064 503.37846671 25.35099009 503.39146555 20.67532086 503.40037727 C17.74996448 503.40625792 14.82462343 503.41447083 11.89927483 503.42338562 C2.73374084 503.45069254 -6.43175773 503.4700497 -15.59732956 503.4777894 C-26.15526882 503.48675599 -36.71269091 503.52189401 -47.27047294 503.57979059 C-55.44909764 503.62307546 -63.62757702 503.64320049 -71.806315 503.64587164 C-76.68378242 503.64796307 -81.56076223 503.65967866 -86.43810844 503.69551086 C-91.02583333 503.72856477 -95.61270629 503.73274014 -100.20050812 503.71523285 C-101.8782359 503.71369725 -103.55601042 503.72230991 -105.2336216 503.74214935 C-114.63656741 503.84677773 -122.60541115 503.61883228 -130 497 C-135.74762443 490.18355506 -137.12291341 484.50950853 -137.12863445 475.62777805 C-137.1318589 474.35915946 -137.13508335 473.09054086 -137.1384055 471.78347927 C-137.1369345 470.38320503 -137.13536679 468.98293089 -137.13371277 467.58265686 C-137.13558156 466.08928906 -137.13788254 464.59592175 -137.14057809 463.10255522 C-137.14669386 459.00225029 -137.14656276 454.90196576 -137.14538372 450.80165732 C-137.14517966 446.37827148 -137.15069891 441.95489219 -137.15544128 437.5315094 C-137.16374681 428.8671333 -137.16649607 420.20276401 -137.16705366 411.53838427 C-137.1675288 404.49672843 -137.16958343 397.45507485 -137.17275429 390.41341972 C-137.18156003 370.45214184 -137.1861737 350.49086933 -137.18542381 330.52958948 C-137.18536388 328.91549811 -137.18536388 328.91549811 -137.18530273 327.26879883 C-137.18526185 326.19142546 -137.18522097 325.1140521 -137.18517885 324.00403105 C-137.18477224 306.53657772 -137.19434575 289.06914593 -137.2084411 271.60169882 C-137.22279758 253.66930675 -137.22971171 235.73692519 -137.22884732 217.80452722 C-137.22851514 207.73555653 -137.2312718 197.66660842 -137.24202538 187.5976429 C-137.25112072 179.02640724 -137.25331353 170.45520442 -137.24651595 161.88396604 C-137.24324607 157.51048368 -137.24321098 153.13706436 -137.2518692 148.76358795 C-137.25971426 144.75972401 -137.25832324 140.75597331 -137.24958507 136.7521122 C-137.2480457 135.30399304 -137.24988267 133.85586551 -137.25544515 132.40775622 C-137.30316298 119.10358302 -137.30316298 119.10358302 -135 113 C-134.608125 111.865625 -134.21625 110.73125 -133.8125 109.5625 C-129.72099551 101.52057737 -122.34627875 94.52590447 -115.49169922 88.72314453 C-107.88655214 82.28043689 -101.00605305 75.07723211 -94 68 C-91.35717585 65.33032568 -88.71088176 62.66415992 -86.0625 60 C-85.47267334 59.401875 -84.88284668 58.80375 -84.27514648 58.1875 C-81.28932217 55.18449892 -78.2472198 52.30856825 -75.04101562 49.54101562 C-70.9304527 45.98765794 -67.09766834 42.20848634 -63.28125 38.34375 C-62.57907349 37.63778687 -61.87689697 36.93182373 -61.15344238 36.20446777 C-58.93315397 33.97208642 -56.71616045 31.73647889 -54.5 29.5 C-51.57590521 26.54909622 -48.64836943 23.60166797 -45.71875 20.65625 C-45.063302 19.99250366 -44.407854 19.32875732 -43.73254395 18.64489746 C-39.85769714 14.74987045 -35.86808298 11.0536819 -31.70179749 7.47151184 C-30.34462627 6.29799176 -29.02313314 5.08324803 -27.71484375 3.85546875 C-19.76972217 -3.60072227 -9.83054 -5.56351821 0 0 Z " fill="#2F2FFC" transform="translate(819,259)"/>
<path d="M0 0 C44.22 0 88.44 0 134 0 C134 0.33 134 0.66 134 1 C132.8346875 1.12375 131.669375 1.2475 130.46875 1.375 C110.55952882 3.76995493 91.38882016 9.95101744 74 20 C73.4004248 20.34643555 72.80084961 20.69287109 72.18310547 21.04980469 C63.0123553 26.45192268 54.8538259 32.83559354 47 40 C46.06414063 40.85207031 45.12828125 41.70414063 44.1640625 42.58203125 C18.82826771 66.79259733 6.90754759 98.15078871 1 132 C0.67 132 0.34 132 0 132 C0 88.44 0 44.88 0 0 Z " fill="#010101" transform="translate(0,0)"/>
<path d="M0 0 C0.33 0 0.66 0 1 0 C1.10957031 0.61705811 1.21914063 1.23411621 1.33203125 1.86987305 C6.4333735 29.91947899 15.9785609 56.32650239 35 78 C35.49290527 78.56444824 35.98581055 79.12889648 36.49365234 79.71044922 C57.06217769 103.05761099 81.8452152 118.38111151 111.875 126.375 C112.81351807 126.62596436 113.75203613 126.87692871 114.71899414 127.13549805 C121.12720942 128.75405335 127.40666044 129.58621882 134 130 C134 130.33 134 130.66 134 131 C89.78 131 45.56 131 0 131 C0 87.77 0 44.54 0 0 Z " fill="#020202" transform="translate(0,1123)"/>
<path d="M0 0 C44.22 0 88.44 0 134 0 C134 43.23 134 86.46 134 131 C133.67 131 133.34 131 133 131 C132.86464844 129.94425781 132.72929688 128.88851562 132.58984375 127.80078125 C130.09568836 110.03881725 124.56900599 93.45830307 115.94677734 77.72998047 C115.07400715 76.13522813 114.23273632 74.52334412 113.39453125 72.91015625 C95.37494528 39.76301663 62.44634288 16.59282011 26.9375 5.625 C18.11903057 3.3004216 9.02716726 2.19877875 0 1 C0 0.67 0 0.34 0 0 Z " fill="#020202" transform="translate(1120,0)"/>
<path d="M0 0 C0.33 0 0.66 0 1 0 C1 43.23 1 86.46 1 131 C-43.22 131 -87.44 131 -133 131 C-133 130.67 -133 130.34 -133 130 C-132.00742188 129.90203125 -131.01484375 129.8040625 -129.9921875 129.703125 C-93.65903767 125.83137513 -57.96620008 107.58443083 -34.55078125 79.24609375 C-16.08396047 56.12696336 -3.14994689 29.66591775 0 0 Z " fill="#020202" transform="translate(1253,1123)"/>
<path d="M0 0 C1.17820312 0.51046875 2.35640625 1.0209375 3.5703125 1.546875 C8.58636626 4.13198072 12.00077922 6.95127242 15.0625 11.6875 C15.79533203 12.79931641 15.79533203 12.79931641 16.54296875 13.93359375 C20.88490436 21.48423251 20.98380734 29.75501041 19.875 38.25 C17.3742347 46.76971752 12.35976549 53.47444411 4.875 58.25 C-3.32271956 62.1920728 -11.88715825 63.8780584 -20.7890625 61.5546875 C-30.89660481 57.92085809 -36.37468591 51.73545145 -41.125 42.25 C-44.31827478 34.1216642 -43.91445484 25.83258031 -41.1640625 17.6328125 C-37.67230523 9.62539921 -31.27954407 3.3637154 -23.5625 -0.5625 C-15.20879179 -3.44832647 -8.13888163 -3.61330569 0 0 Z " fill="#FAFAFD" transform="translate(816.125,336.75)"/>
<path d="M0 0 C1.25167969 0.00644531 2.50335937 0.01289062 3.79296875 0.01953125 C6.8125 0.1875 6.8125 0.1875 7.8125 1.1875 C9.44506758 1.34464654 11.08385338 1.43835414 12.72265625 1.50390625 C13.71201172 1.54580078 14.70136719 1.58769531 15.72070312 1.63085938 C16.76162109 1.67017578 17.80253906 1.70949219 18.875 1.75 C20.44217773 1.81477539 20.44217773 1.81477539 22.04101562 1.88085938 C24.63136884 1.98731225 27.22182186 2.0893276 29.8125 2.1875 C29.8125 2.5175 29.8125 2.8475 29.8125 3.1875 C25.74146481 3.2125466 21.67046054 3.23052089 17.59936523 3.24243164 C16.21947446 3.24740624 14.83958879 3.25418832 13.4597168 3.26293945 C5.18156676 3.31405771 -2.96032454 3.14807715 -11.1875 2.1875 C-7.31786218 0.05250917 -4.43764823 -0.05058459 0 0 Z " fill="#605EF9" transform="translate(619.1875,983.8125)"/>
<path d="M0 0 C0.66 0.66 1.32 1.32 2 2 C-3.33333333 7.33333333 -8.66666667 12.66666667 -14 18 C-14.66 17.34 -15.32 16.68 -16 16 C-10.72 10.72 -5.44 5.44 0 0 Z " fill="#3838FA" transform="translate(772,281)"/>
<path d="M0 0 C0 3.80672941 -0.75360239 4.91120329 -3 8 C-4.99745961 9.89125522 -7.0538765 11.68025755 -9.16015625 13.44921875 C-11.0768666 15.02023639 -11.0768666 15.02023639 -13 17 C-13.99 16.67 -14.98 16.34 -16 16 C-10.72 10.72 -5.44 5.44 0 0 Z " fill="#3938FA" transform="translate(740,312)"/>
<path d="M0 0 C1 2 1 2 0.00390625 5.2578125 C-0.46889984 6.5497052 -0.94971969 7.83868638 -1.4375 9.125 C-1.68048828 9.78371094 -1.92347656 10.44242188 -2.17382812 11.12109375 C-2.77578321 12.74991338 -3.38702412 14.37529575 -4 16 C-6.13562754 13.86437246 -6.63318342 12.93453261 -7 10 C-6.34 9.34 -5.68 8.68 -5 8 C-5 7.01 -5 6.02 -5 5 C-2.5 2.3125 -2.5 2.3125 0 0 Z " fill="#4344FA" transform="translate(921,761)"/>
<path d="M0 0 C7.26 0 14.52 0 22 0 C22 0.66 22 1.32 22 2 C15.71734949 5.14132526 6.53895816 2.10129822 0 1 C0 0.67 0 0.34 0 0 Z " fill="#181716" transform="translate(1120,0)"/>
<path d="M0 0 C-0.99 1.485 -0.99 1.485 -2 3 C-4.06298828 3.34057617 -4.06298828 3.34057617 -6.5703125 3.29296875 C-7.46621094 3.28330078 -8.36210938 3.27363281 -9.28515625 3.26367188 C-10.69087891 3.2259668 -10.69087891 3.2259668 -12.125 3.1875 C-13.06988281 3.17396484 -14.01476563 3.16042969 -14.98828125 3.14648438 C-17.32608779 3.11106306 -19.66276237 3.06167271 -22 3 C-22 2.67 -22 2.34 -22 2 C-20.33710937 1.80083984 -20.33710937 1.80083984 -18.640625 1.59765625 C-17.1770673 1.41940243 -15.71352651 1.24100972 -14.25 1.0625 C-13.15558594 0.93198242 -13.15558594 0.93198242 -12.0390625 0.79882812 C-7.92122386 0.30960622 -7.92122386 0.30960622 -3.88183594 -0.59594727 C-2 -1 -2 -1 0 0 Z " fill="#232222" transform="translate(1142,1251)"/>
<path d="M0 0 C0.66 0 1.32 0 2 0 C0.38989473 4.07376031 -2.53822271 6.76507069 -5.625 9.75 C-6.140625 10.25660156 -6.65625 10.76320313 -7.1875 11.28515625 C-8.45383339 12.52803902 -9.7263144 13.76465276 -11 15 C-11.66 14.67 -12.32 14.34 -13 14 C-12.22914062 13.24074219 -11.45828125 12.48148438 -10.6640625 11.69921875 C-9.65090904 10.69544634 -8.63789552 9.69153268 -7.625 8.6875 C-7.11710937 8.18798828 -6.60921875 7.68847656 -6.0859375 7.17382812 C-3.77145867 4.87457613 -1.81652517 2.72478775 0 0 Z " fill="#1F1F20" transform="translate(1219,1201)"/>
<path d="M0 0 C5.28 0 10.56 0 16 0 C16 0.33 16 0.66 16 1 C10.72 1.66 5.44 2.32 0 3 C0 2.01 0 1.02 0 0 Z " fill="#191818" transform="translate(118,0)"/>
<path d="M0 0 C0.33 0 0.66 0 1 0 C1.66 5.28 2.32 10.56 3 16 C2.67 15.34 2.34 14.68 2 14 C1.34 14 0.68 14 0 14 C0 9.38 0 4.76 0 0 Z " fill="#6368FC" transform="translate(580,702)"/>
<path d="M0 0 C0 3.66842255 -0.79029126 5.10451959 -3 8 C-5.6875 8.8125 -5.6875 8.8125 -8 9 C-7.04270084 7.87411986 -6.08412105 6.7493285 -5.125 5.625 C-4.59132813 4.99851562 -4.05765625 4.37203125 -3.5078125 3.7265625 C-2.38567993 2.44163349 -1.20628025 1.20628025 0 0 Z " fill="#4748F7" transform="translate(740,312)"/>
<path d="M0 0 C0.33 0.66 0.66 1.32 1 2 C0.06553465 4.03144641 -0.93224776 6.03533587 -2 8 C-3.0625 6.1875 -3.0625 6.1875 -4 4 C-3.67 3.01 -3.34 2.02 -3 1 C-2.01 0.67 -1.02 0.34 0 0 Z " fill="#4D53FC" transform="translate(924,720)"/>
<path d="M0 0 C2.31 1.98 4.62 3.96 7 6 C6.34 6.66 5.68 7.32 5 8 C3.02 5.69 1.04 3.38 -1 1 C-0.67 0.67 -0.34 0.34 0 0 Z " fill="#3439FC" transform="translate(868,309)"/>
<path d="M0 0 C0.66 0.99 1.32 1.98 2 3 C1.01 4.98 0.02 6.96 -1 9 C-1.66 8.67 -2.32 8.34 -3 8 C-1.125 2.25 -1.125 2.25 0 0 Z " fill="#3439FB" transform="translate(897,817)"/>
<path d="M0 0 C0 0.99 0 1.98 0 3 C-1.75 4.60546875 -1.75 4.60546875 -4 6.1875 C-4.7425 6.71730469 -5.485 7.24710937 -6.25 7.79296875 C-6.8275 8.19128906 -7.405 8.58960938 -8 9 C-6.1144852 4.71640327 -3.64034299 2.84896408 0 0 Z " fill="#E8E9FD" transform="translate(787,340)"/>
<path d="M0 0 C0.66 0.33 1.32 0.66 2 1 C0.92598892 3.91517292 0.22189824 5.77810176 -2 8 C-2.33 7.01 -2.66 6.02 -3 5 C-1.5625 2.3125 -1.5625 2.3125 0 0 Z " fill="#393EFB" transform="translate(890,831)"/>
<path d="M0 0 C1.98 1.65 3.96 3.3 6 5 C5.34 5.66 4.68 6.32 4 7 C2.35 5.02 0.7 3.04 -1 1 C-0.67 0.67 -0.34 0.34 0 0 Z " fill="#3537FB" transform="translate(894,335)"/>
</svg>
