<svg width="44" height="44" viewBox="0 0 44 44" fill="none" xmlns="http://www.w3.org/2000/svg">
<path d="M22.0003 10.0037C12.5089 -1.64062 2.48942 6.63452 2.35742 15.5571C2.35742 28.8325 18.2446 39.7257 22.0003 39.7257C25.756 39.7257 41.6431 28.8294 41.6431 15.5508C41.5111 6.63138 31.4917 -1.64062 22.0003 10.0037Z" fill="#D7E0FF"/>
<path d="M2.76562 12.5714C4.7582 5.01281 13.5896 -0.320621 21.9999 10.0037C31.4913 -1.64062 41.5108 6.63138 41.6428 15.5508C41.6428 28.8294 25.7556 39.7288 21.9999 39.7288C19.7528 39.7288 13.1685 35.8317 8.23734 29.8571" stroke="#4147D5" stroke-width="3.14286" stroke-linecap="round" stroke-linejoin="round"/>
<path d="M29.8555 20.4285H25.1412L20.4269 26.7142L14.1412 15.7142L9.42693 21.9999H1.76465" stroke="#4147D5" stroke-width="3.14286" stroke-linecap="round" stroke-linejoin="round"/>
</svg>
