<svg width="43" height="43" viewBox="0 0 43 43" fill="none" xmlns="http://www.w3.org/2000/svg">
<path d="M2.99121 39.6829H39.5716" stroke="#4147D5" stroke-width="3.03571" stroke-linecap="round" stroke-linejoin="round"/>
<path d="M18.0342 5.97758V2.42883" stroke="#4147D5" stroke-width="3.03571" stroke-linecap="round" stroke-linejoin="round"/>
<path d="M10.3408 5.97748V2.43176" stroke="#4147D5" stroke-width="3.03571" stroke-linecap="round" stroke-linejoin="round"/>
<path d="M25.7324 5.97748V2.43176" stroke="#4147D5" stroke-width="3.03571" stroke-linecap="round" stroke-linejoin="round"/>
<path d="M5.56289 24.9294C5.78754 29.3221 9.57004 32.8496 13.9536 33.1987C15.4684 33.3201 16.9134 33.4051 18.1156 33.4051C19.3906 33.4051 21.0025 33.311 22.6934 33.1774C27.077 32.8314 30.8595 29.3221 31.0872 24.9294C31.1145 24.3739 31.1297 23.7849 31.1297 23.1505C31.1297 19.3801 31.1934 16.2078 30.8868 12.7744C24.3084 12.1673 15.3743 12.1005 8.27986 12.5771C7.57505 12.6197 6.91088 12.9214 6.41497 13.424C5.91906 13.9266 5.6264 14.5948 5.59325 15.3001C5.48093 17.8228 5.51736 20.3182 5.51736 23.1505C5.51736 23.7849 5.53254 24.3739 5.56289 24.9294Z" fill="#D7E0FF"/>
<path d="M5.56289 24.9294C5.78754 29.3221 9.57004 32.8496 13.9536 33.1987C15.4684 33.3201 16.9134 33.4051 18.1156 33.4051C19.3906 33.4051 21.0025 33.311 22.6934 33.1774C27.077 32.8314 30.8595 29.3221 31.0872 24.9294C31.1145 24.3739 31.1297 23.7849 31.1297 23.1505C31.1297 19.3801 31.1934 16.2078 30.8868 12.7744C24.3084 12.1673 15.3743 12.1005 8.27986 12.5771C7.57505 12.6197 6.91088 12.9214 6.41497 13.424C5.91906 13.9266 5.6264 14.5948 5.59325 15.3001C5.48093 17.8228 5.51736 20.3182 5.51736 23.1505C5.51736 23.7849 5.53254 24.3739 5.56289 24.9294Z" stroke="#4147D5" stroke-width="3.03571" stroke-linecap="round" stroke-linejoin="round"/>
<path d="M31.0788 25.7006C31.4158 25.6885 31.7588 25.6763 32.1049 25.6581C35.5747 25.4821 38.7076 22.7256 38.7076 19.2497C38.7076 15.7769 35.5747 13.0326 32.1049 12.8383C31.7003 12.8171 31.2955 12.7999 30.8906 12.7867V12.7776" stroke="#4147D5" stroke-width="3.03571" stroke-linecap="round" stroke-linejoin="round"/>
</svg>
