<svg width="44" height="44" viewBox="0 0 44 44" fill="none" xmlns="http://www.w3.org/2000/svg">
<path d="M32.112 19.4698L39.0633 31.3964C40.3902 33.6732 39.3471 36.596 36.8787 37.5185C27.284 41.1035 16.7175 41.1035 7.12285 37.5185C4.65442 36.596 3.61137 33.6732 4.93825 31.3964L12.0157 19.2531C19.3724 20.3116 25.4776 20.3676 32.112 19.4698Z" fill="#D7E0FF"/>
<path d="M29.6561 15.2609C29.0961 14.3001 28.8011 13.2079 28.8011 12.0958V3.79199H15.1945V12.0958C15.1945 13.2079 14.8994 14.3001 14.3394 15.2609L12.0127 19.2531C19.3694 20.3116 25.4747 20.3676 32.1092 19.4699L29.6561 15.2609Z" fill="white"/>
<path d="M32.112 19.4698L39.0633 31.3964C40.3902 33.6732 39.3471 36.596 36.8787 37.5185C27.284 41.1035 16.7175 41.1035 7.12285 37.5185C4.65442 36.596 3.61137 33.6732 4.93825 31.3964L12.0157 19.2531C19.3724 20.3116 25.4776 20.3676 32.112 19.4698Z" stroke="#4147D5" stroke-width="3.17857" stroke-linecap="round" stroke-linejoin="round"/>
<path d="M29.6561 15.2609C29.0961 14.3001 28.8011 13.2079 28.8011 12.0958V3.79199H15.1945V12.0958C15.1945 13.2079 14.8994 14.3001 14.3394 15.2609L12.0127 19.2531C19.3694 20.3116 25.4747 20.3676 32.1092 19.4699L29.6561 15.2609Z" stroke="#4147D5" stroke-width="3.17857" stroke-linecap="round" stroke-linejoin="round"/>
<path d="M10.9717 3.79199H33.027" stroke="#4147D5" stroke-width="3.17857" stroke-linecap="round" stroke-linejoin="round"/>
<path d="M32.1122 19.4698C25.4775 20.3676 19.3723 20.3116 12.0156 19.2531" stroke="#4147D5" stroke-width="3.17857" stroke-linecap="round" stroke-linejoin="round"/>
</svg>
