<?xml version="1.0" encoding="UTF-8"?>
<svg version="1.1" xmlns="http://www.w3.org/2000/svg" width="1024" height="1024">
<path d="M0 0 C6.15121727 0.05073901 12.30229787 0.07596916 18.45368004 0.09643078 C23.26294334 0.11670019 28.07195076 0.15449792 32.88106155 0.19729042 C35.15441524 0.21455123 37.42782854 0.22530722 39.70124435 0.22923851 C42.83239608 0.23628515 45.96235535 0.26806944 49.09326172 0.30615234 C50.47495796 0.30096336 50.47495796 0.30096336 51.88456726 0.29566956 C56.00688646 0.37012504 58.27225675 0.50575475 61.84268188 2.7155304 C64.68898415 5.75629556 66.09822624 7.73705492 66.17583561 11.86999512 C66.19561266 12.68443085 66.2153897 13.49886658 66.23576605 14.33798218 C66.25297078 15.67634628 66.25297078 15.67634628 66.27052307 17.04174805 C66.28986385 17.98656036 66.30920462 18.93137268 66.32913148 19.90481567 C66.39024228 23.06950767 66.43604147 26.23420579 66.48071289 29.39916992 C66.51871379 31.65482909 66.55691096 33.91048496 66.59529209 36.1661377 C66.97889106 60.28735309 66.95828385 84.40935283 66.90202141 108.53283691 C66.88485271 115.8980977 66.87536142 123.26334792 66.86814267 130.62862349 C66.85636706 142.62180551 66.84148237 154.61498074 66.82299805 166.6081543 C66.82190792 167.3168301 66.8208178 168.0255059 66.81969465 168.75565672 C66.80736754 176.69810996 66.79377764 184.64055992 66.77838135 192.58300781 C66.7769869 193.30265528 66.77559245 194.02230274 66.77415574 194.76375771 C66.77133643 196.2167244 66.76851678 197.66969109 66.76569677 199.12265778 C66.76430346 199.84103569 66.76291014 200.5594136 66.76147461 201.29956055 C66.76008108 202.01702202 66.75868755 202.73448349 66.75725179 203.47368622 C66.73414217 215.4783431 66.71888294 227.4829952 66.70991522 239.4876709 C66.70360669 247.47932788 66.68800433 255.47089573 66.6655978 263.46252823 C66.65379696 268.42805221 66.65049661 273.39355592 66.64949989 278.35909271 C66.64737016 280.64141181 66.64184072 282.92373095 66.63246918 285.2060318 C66.59192992 295.48211601 66.62822779 305.68154823 67.73390198 315.90795898 C67.80998182 316.61279293 67.88606167 317.31762688 67.96444696 318.04381943 C70.25001655 336.4794343 80.57893873 352.05623312 94.41992188 363.99291992 C104.33095431 371.58728688 120.76177669 380.86791992 133.53320312 380.86791992 C135.85742188 380.86791992 135.85742188 380.86791992 137.61035156 381.81469727 C140.47059131 383.15531811 142.99388775 383.39384947 146.13476562 383.71948242 C147.37162109 383.84838867 148.60847656 383.97729492 149.8828125 384.11010742 C151.81930664 384.29959961 151.81930664 384.29959961 153.79492188 384.49291992 C155.05111328 384.62698242 156.30730469 384.76104492 157.6015625 384.89916992 C200.64418164 389.25454078 248.62087744 379.26518543 283.16357422 352.27954102 C286.49845755 349.50031135 289.36303652 346.41641792 291.85742188 342.86791992 C292.51742188 343.19791992 293.17742187 343.52791992 293.85742188 343.86791992 C286.99657957 364.97492233 279.34220876 385.37899888 266.85742188 403.86791992 C266.48681641 404.41963867 266.11621094 404.97135742 265.734375 405.53979492 C236.61757418 448.5609582 192.16593384 480.61071375 140.88867188 491.15698242 C129.6976262 493.29808641 118.59576822 495.00318332 107.18554688 495.07104492 C106.38941986 495.07810455 105.59329285 495.08516418 104.77304077 495.09243774 C71.92755719 495.31754648 71.92755719 495.31754648 55.85742188 491.86791992 C54.90367676 491.67456055 53.94993164 491.48120117 52.96728516 491.28198242 C16.78686735 483.83560772 -13.9316641 468.50844057 -42.14257812 444.86791992 C-42.94953125 444.1950293 -43.75648438 443.52213867 -44.58789062 442.82885742 C-62.80227354 427.26920238 -76.76368585 407.83031422 -88.14257812 386.86791992 C-88.65433594 385.93979492 -89.16609375 385.01166992 -89.69335938 384.05541992 C-98.20028975 367.91288896 -103.53411563 350.68811321 -107.14257812 332.86791992 C-107.3771875 331.75803711 -107.61179687 330.6481543 -107.85351562 329.50463867 C-109.10136913 322.67761406 -109.39856068 315.82323888 -109.68136597 308.9034729 C-109.72462128 307.84590054 -109.76787658 306.78832818 -109.81244266 305.69870818 C-110.23271075 294.66832378 -110.28363575 283.64854245 -110.27197266 272.61157227 C-110.27333301 270.40011059 -110.27511645 268.18864914 -110.27728271 265.97718811 C-110.28178981 260.03921676 -110.28009337 254.10126306 -110.27690363 248.16329145 C-110.27433532 241.86656116 -110.27673069 235.56983217 -110.27828979 229.27310181 C-110.28021822 217.99801076 -110.27713975 206.7229268 -110.27203046 195.44783743 C-110.26759712 185.35576464 -110.26831298 175.26370342 -110.27294922 165.17163086 C-110.27836515 153.33351491 -110.28024653 141.49540615 -110.27733696 129.65728915 C-110.27580999 123.43633221 -110.27547696 117.2153831 -110.27887344 110.99442673 C-110.2856564 96.12795968 -110.25675352 81.26217353 -110.16419697 66.39597225 C-110.14937447 63.97703922 -110.13572366 61.5580988 -110.12306499 59.13915348 C-110.08240001 51.559814 -110.01916841 43.98122949 -109.92509437 36.40235829 C-109.89813114 34.00981425 -109.87773246 31.61718618 -109.8642714 29.22452807 C-109.84401213 25.92206962 -109.79886848 22.62085358 -109.74728394 19.3187561 C-109.74647221 18.34460448 -109.74566049 17.37045285 -109.74482417 16.36678147 C-109.62492614 10.74714637 -109.04787884 7.23153326 -105.14257812 2.86791992 C-102.39780593 0.99531172 -100.20398987 0.60914179 -96.91732788 0.5460968 C-96.07944607 0.5256386 -95.24156425 0.5051804 -94.37829208 0.48410225 C-93.46567738 0.47194616 -92.55306267 0.45979008 -91.61279297 0.44726562 C-90.15864172 0.41732419 -90.15864172 0.41732419 -88.67511368 0.38677788 C-85.44300793 0.32413138 -82.21090259 0.27691235 -78.97851562 0.23120117 C-76.68866919 0.19301699 -74.39882342 0.15479295 -72.10897827 0.11653137 C-48.07238508 -0.25557479 -24.03784348 -0.2023029 0 0 Z " fill="#4A4DFE" transform="translate(408.142578125,259.132080078125)"/>
<path d="M0 0 C5.80297109 2.81008182 9.92094752 6.49069008 14.43237305 11.04418945 C15.13898071 11.74554016 15.84558838 12.44689087 16.5736084 13.16949463 C18.89388607 15.47663072 21.20308945 17.79449363 23.51171875 20.11328125 C25.12837156 21.72791166 26.74546936 23.34209664 28.36299133 24.95585632 C31.74599923 28.33444876 35.1235406 31.71838857 38.49731445 35.10620117 C42.81462794 39.44060568 47.14526996 43.76140241 51.4801054 48.07827473 C54.8201655 51.40747621 58.15302501 54.74381246 61.48377419 58.08232689 C63.07752314 59.67807209 64.67348984 61.27160559 66.27173424 62.86284828 C68.50711433 65.09058008 70.73260319 67.3277556 72.95581055 69.56762695 C73.94164879 70.54435616 73.94164879 70.54435616 74.94740295 71.54081726 C83.58147053 80.29469745 84.78098052 86.82790837 85 99 C85.02161969 100.15601632 85.02161969 100.15601632 85.04367614 101.33538651 C85.14423888 107.65046275 85.14707587 113.9647901 85.14526367 120.28051758 C85.14826198 122.38470519 85.15166604 124.48889225 85.15544128 126.59307861 C85.16421141 132.2641715 85.16661627 137.93524926 85.16725707 143.60634828 C85.1679709 147.15520205 85.17011135 150.70405206 85.17275429 154.25290489 C85.18198048 166.64866757 85.18609209 179.04441955 85.18530273 191.44018555 C85.18470081 202.97431502 85.19528201 214.5083979 85.2110464 226.04251558 C85.22413 235.97070752 85.22948637 245.89888422 85.22884732 255.82708472 C85.22859283 261.74609153 85.23141805 267.66505677 85.24202538 273.58405495 C85.2517216 279.14506727 85.25177506 284.70599833 85.24450874 290.26701355 C85.24346521 292.30271206 85.245812 294.33841569 85.2518692 296.37410545 C85.25962408 299.16155174 85.25492151 301.94871968 85.24723816 304.73616028 C85.25238172 305.53335395 85.25752529 306.33054762 85.26282471 307.15189868 C85.20179804 317.23176645 83.32876813 325.9709658 77 334 C74.20557691 336.70144783 71.26559837 338.89988243 68 341 C67.09507812 341.58201172 67.09507812 341.58201172 66.171875 342.17578125 C55.82360954 348.00230463 42.65111265 349.96068448 30.97192383 350.31201172 C29.97449819 350.34274717 29.97449819 350.34274717 28.95692253 350.37410355 C26.76956938 350.43932867 24.58211161 350.49762043 22.39453125 350.5546875 C21.63193308 350.57562344 20.86933491 350.59655937 20.0836277 350.61812973 C3.51189269 351.06735137 -13.05606708 351.15487961 -29.63305664 351.13037109 C-33.58895521 351.12456959 -37.54478741 351.12804514 -41.50068378 351.13394356 C-44.62628163 351.13758191 -47.75186404 351.1363974 -50.87746239 351.13381577 C-52.33679399 351.13316093 -53.79612711 351.13392269 -55.25545692 351.13629532 C-82.05954805 351.17048336 -82.05954805 351.17048336 -87 348 C-91.24024111 343.09064283 -91.63933966 339.01450931 -91.75 332.8125 C-91.77964844 332.00619141 -91.80929687 331.19988281 -91.83984375 330.36914062 C-91.9489449 327.24417191 -92 324.12694023 -92 321 C-92.00427187 318.00650996 -92.00878986 315.01302067 -92.01345825 312.01953125 C-92.05302765 285.94330281 -92.08311773 259.86707827 -92.10213066 233.7908265 C-92.10463171 230.37340901 -92.10722039 226.9559916 -92.10986328 223.53857422 C-92.1103879 222.85830536 -92.11091252 222.17803649 -92.11145304 221.47715342 C-92.12015066 210.46903643 -92.13591893 199.46094038 -92.15430559 188.4528358 C-92.17303881 177.14239392 -92.18397406 165.83196754 -92.18817699 154.52150917 C-92.1907809 148.17471891 -92.19688789 141.82797618 -92.21146011 135.48120117 C-92.22506902 129.50586143 -92.22921593 123.53058867 -92.22621536 117.55523491 C-92.22676397 115.36677117 -92.23072066 113.17830511 -92.23841095 110.98985481 C-92.33644138 81.64553608 -92.33644138 81.64553608 -83.4375 72.3125 C-82.633125 71.549375 -81.82875 70.78625 -81 70 C-80.443125 69.401875 -79.88625 68.80375 -79.3125 68.1875 C-78 67 -78 67 -76 67 C-75.72704102 66.40237854 -75.45408203 65.80475708 -75.17285156 65.18902588 C-74.03300132 63.0615941 -72.92785057 61.67459528 -71.234375 59.97558594 C-70.40341309 59.13516754 -70.40341309 59.13516754 -69.55566406 58.277771 C-68.95979492 57.68595032 -68.36392578 57.09412964 -67.75 56.484375 C-67.13608398 55.86854553 -66.52216797 55.25271606 -65.88964844 54.6182251 C-64.59425517 53.32147354 -63.29634356 52.02723343 -61.99609375 50.73535156 C-60.00024932 48.75024798 -58.01533274 46.75466409 -56.03125 44.7578125 C-54.77147445 43.49935789 -53.51107899 42.24152346 -52.25 40.984375 C-51.65413086 40.3844574 -51.05826172 39.78453979 -50.44433594 39.16644287 C-46.22993247 35 -46.22993247 35 -44 35 C-43.79076904 34.46697266 -43.58153809 33.93394531 -43.3659668 33.38476562 C-41.45922973 30.0558992 -38.83901641 27.53383657 -36.14453125 24.84375 C-35.56466965 24.25960327 -34.98480804 23.67545654 -34.38737488 23.0736084 C-33.16013508 21.84063446 -31.93027783 20.61026102 -30.69799805 19.38232422 C-28.82774377 17.51521812 -26.97117369 15.63522888 -25.11523438 13.75390625 C-23.91747887 12.55387629 -22.71893576 11.35463182 -21.51953125 10.15625 C-20.97134232 9.59885132 -20.42315338 9.04145264 -19.85835266 8.46716309 C-14.13524462 2.8108647 -8.36223122 -1.43548622 0 0 Z M-20.6875 70.0625 C-23.92774387 74.84571715 -23.65135104 80.45611442 -23 86 C-20.84560605 92.13816553 -17.73340261 96.00865951 -12 99 C-6.60470425 100.79843192 -0.82067349 100.99000946 4.58203125 99.09375 C9.44139852 96.57945052 12.46112384 93.97196582 15 89 C16.74357897 83.17620901 16.92714096 77.34141255 14.375 71.75 C11.45768206 66.61142595 8.0620291 63.75969493 2.4375 61.6875 C-7.37986999 59.724026 -14.36831676 62.33905382 -20.6875 70.0625 Z " fill="#4B4FFE" transform="translate(621,260)"/>
<path d="M0 0 C0.66 0.33 1.32 0.66 2 1 C-4.8608423 22.10700241 -12.51521311 42.51107896 -25 61 C-25.5559082 61.82757812 -25.5559082 61.82757812 -26.12304688 62.671875 C-55.2398477 105.69303828 -99.69148804 137.74279382 -150.96875 148.2890625 C-162.15979568 150.43016649 -173.26165365 152.1352634 -184.671875 152.203125 C-185.46800201 152.21018463 -186.26412903 152.21724426 -187.0843811 152.22451782 C-219.92986469 152.44962656 -219.92986469 152.44962656 -236 149 C-236.95374512 148.80664062 -237.90749023 148.61328125 -238.89013672 148.4140625 C-275.07055453 140.9676878 -305.78908598 125.64052065 -334 102 C-334.80695313 101.32710937 -335.61390625 100.65421875 -336.4453125 99.9609375 C-354.65969542 84.40128246 -368.62110772 64.9623943 -380 44 C-380.76763672 42.6078125 -380.76763672 42.6078125 -381.55078125 41.1875 C-384.94184812 34.75269925 -387.66720272 28.07958069 -390.3125 21.3125 C-390.66248047 20.43327881 -391.01246094 19.55405762 -391.37304688 18.64819336 C-393.51408428 13.03219313 -394.58059653 7.99929317 -395 2 C-392.32913604 4.67086396 -391.7693263 7.65217806 -390.75 11.1875 C-388.63325468 18.27455725 -386.07599604 25.06487549 -383.234375 31.890625 C-382.28488893 34.28236838 -381.52168345 36.49095103 -381 39 C-380.34 39 -379.68 39 -379 39 C-378.61328125 40.14597656 -378.2265625 41.29195312 -377.828125 42.47265625 C-376.04797061 47.2096596 -373.54751233 51.24075428 -370.75 55.4375 C-370.25838379 56.18467285 -369.76676758 56.9318457 -369.26025391 57.70166016 C-365.73987114 63.00477863 -362.04457743 68.08342652 -358 73 C-357.39671875 73.78632812 -356.7934375 74.57265625 -356.171875 75.3828125 C-335.38237834 101.9648025 -306.27650618 124.40240056 -274 135 C-272.11982437 135.82158935 -270.24486687 136.65521166 -268.375 137.5 C-262.34617707 140.06111651 -256.48155932 141.23002753 -250 142 C-250 142.66 -250 143.32 -250 144 C-244.08046567 144.73191085 -238.30526106 145.15893839 -232.34375 145.16796875 C-231.55657593 145.17129715 -230.76940186 145.17462555 -229.95837402 145.17805481 C-228.30802996 145.18307637 -226.65767591 145.18546463 -225.00732422 145.18530273 C-222.50601309 145.18749473 -220.00514002 145.2057164 -217.50390625 145.22460938 C-215.88802232 145.22754338 -214.27213632 145.22952813 -212.65625 145.23046875 C-211.55428284 145.24124702 -211.55428284 145.24124702 -210.43005371 145.25224304 C-205.06464445 145.22902718 -200.18882335 144.32626836 -195 143 C-194.10635742 142.78520996 -193.21271484 142.57041992 -192.29199219 142.34912109 C-172.57528706 137.29344572 -153.95180449 130.62423486 -136 121 C-135.29842773 120.63181152 -134.59685547 120.26362305 -133.87402344 119.88427734 C-111.75333793 108.25295116 -91.94277894 93.58086164 -73.71484375 76.52734375 C-71.24928033 74.23206385 -68.73023657 72.02121535 -66.1875 69.8125 C-43.61443379 49.90281312 -43.61443379 49.90281312 -28 25 C-29.134375 25.5775 -30.26875 26.155 -31.4375 26.75 C-32.95687868 27.50294254 -34.47781563 28.25274585 -36 29 C-36.79019531 29.39316406 -37.58039063 29.78632812 -38.39453125 30.19140625 C-39.17183594 30.56136719 -39.94914062 30.93132813 -40.75 31.3125 C-41.46671875 31.65925781 -42.1834375 32.00601563 -42.921875 32.36328125 C-45.37590725 33.11517459 -46.57940544 32.69868598 -49 32 C-45.06697709 30.00060374 -41.14707426 28.03390641 -37.09765625 26.28125 C-23.44501012 20.31052862 -8.76529168 12.46945259 0 0 Z " fill="#3C37DB" transform="translate(700,602)"/>
<path d="M0 0 C13.99503121 -0.09348304 27.99001394 -0.16373251 41.98529339 -0.20724869 C48.48371387 -0.22813313 54.98192476 -0.2564671 61.48022461 -0.30175781 C67.75015641 -0.34518397 74.01988647 -0.36913065 80.28995705 -0.37950897 C82.68340036 -0.38690607 85.0768325 -0.40135063 87.47019005 -0.42292023 C90.81980725 -0.45191031 94.1685883 -0.45595771 97.51831055 -0.45410156 C98.51021393 -0.46848267 99.50211731 -0.48286377 100.52407837 -0.49768066 C104.81812183 -0.47189274 107.29970584 -0.42545001 111.03010559 1.84088135 C113.82976361 4.9094691 115.24136372 6.88803723 115.31674004 11.0131712 C115.33618132 11.82983065 115.35562261 12.64649009 115.37565303 13.4878968 C115.38678732 14.38236617 115.39792161 15.27683553 115.40939331 16.19841003 C115.42844199 17.14517896 115.44749068 18.09194788 115.46711659 19.06740677 C115.52738792 22.23649771 115.57253671 25.40559738 115.61669922 28.57495117 C115.65439984 30.8317088 115.69238414 33.0884617 115.73063469 35.34521008 C116.13210081 60.53278108 116.1472631 85.72215291 116.1343255 110.91228509 C116.13278756 114.86488117 116.13289682 118.81747495 116.13381577 122.77007103 C116.133969 123.43673128 116.13412223 124.10339153 116.13428011 124.79025361 C116.13459996 126.14625039 116.13492418 127.50224718 116.1352527 128.85824396 C116.13806101 141.3792106 116.13489089 153.90016974 116.12945233 166.42113515 C116.12494961 177.12003452 116.12579747 187.81892307 116.13037109 198.51782227 C116.1357336 211.06732506 116.13782672 223.61682149 116.13475883 236.16632527 C116.13318833 242.76620802 116.13296885 249.36608477 116.13629532 255.96596718 C116.13919203 262.13809133 116.13716539 268.31019502 116.13140106 274.48231697 C116.13008525 276.73609127 116.13044741 278.98986731 116.13266373 281.2436409 C116.14244898 292.20702352 116.15048102 303.0843627 115 314 C114.67 314 114.34 314 114 314 C113.23173762 305.41700658 112.85782098 296.92438116 112.88215637 288.30895996 C112.88145179 287.10081587 112.88074721 285.89267179 112.88002127 284.64791727 C112.87917085 282.02166586 112.8800987 279.39549005 112.88416862 276.76924896 C112.89076033 272.4942536 112.89035257 268.21927419 112.88909912 263.9442749 C112.88798346 258.54081905 112.88861044 253.13736831 112.89129993 247.733913 C112.89644522 237.12617894 112.88804023 226.51849202 112.87467957 215.9107666 C112.87263311 214.23726066 112.87059078 212.56375472 112.86855251 210.89024878 C112.86439751 207.50393162 112.86018257 204.11761455 112.85594499 200.73129749 C112.84516417 192.04873068 112.8353446 183.36616317 112.8269043 174.68359375 C112.82605305 173.81301608 112.8252018 172.94243841 112.82432475 172.0454796 C112.8110766 157.90737159 112.81614209 143.76931984 112.82697586 129.63121241 C112.83759801 115.09988966 112.82545277 100.5687074 112.79289359 86.03741693 C112.77360985 77.08079343 112.77261587 68.12454517 112.79504987 59.16792732 C112.80877339 53.03848626 112.80069577 46.90931975 112.77532528 40.7799167 C112.76135556 37.24285222 112.75721798 33.70648071 112.77915001 30.16944122 C112.80266987 26.33765805 112.78001655 22.50694772 112.75276184 18.6751709 C112.76703006 17.55466386 112.78129828 16.43415683 112.79599887 15.27969503 C112.82616104 9.95460623 112.82616104 9.95460623 110.78093219 5.19511586 C107.87354073 2.56588489 105.12962637 1.37457112 101.25430298 1.36076355 C100.35415466 1.34547607 99.45400635 1.3301886 98.52658081 1.31443787 C97.07217087 1.32737633 97.07217087 1.32737633 95.58837891 1.34057617 C94.55362427 1.33009247 93.51886963 1.31960876 92.45275879 1.30880737 C89.04372075 1.28008156 85.63569977 1.2863464 82.2265625 1.29296875 C79.85857878 1.27985231 77.49060625 1.26454826 75.12265015 1.24714661 C68.89851994 1.20727802 62.6746823 1.19710488 56.45043945 1.19311523 C50.0957755 1.18378744 43.74128369 1.146376 37.38671875 1.11132812 C24.92448722 1.04673308 12.46238429 1.01350861 0 1 C0 0.67 0 0.34 0 0 Z " fill="#4340FC" transform="translate(359,260)"/>
<path d="M0 0 C13.99503121 -0.09348304 27.99001394 -0.16373251 41.98529339 -0.20724869 C48.48371387 -0.22813313 54.98192476 -0.2564671 61.48022461 -0.30175781 C67.75015641 -0.34518397 74.01988647 -0.36913065 80.28995705 -0.37950897 C82.68340036 -0.38690607 85.0768325 -0.40135063 87.47019005 -0.42292023 C90.81980725 -0.45191031 94.1685883 -0.45595771 97.51831055 -0.45410156 C98.51021393 -0.46848267 99.50211731 -0.48286377 100.52407837 -0.49768066 C104.81812183 -0.47189274 107.29970584 -0.42545001 111.03010559 1.84088135 C115.13631602 6.3415264 115.33336248 9.71648862 115.4140625 15.55859375 C115.43351929 16.45838959 115.45297607 17.35818542 115.47302246 18.2852478 C115.53471465 21.33590071 115.58053072 24.38655017 115.625 27.4375 C115.643349 28.4930307 115.661698 29.5485614 115.68060303 30.63607788 C116.05433337 52.16426185 116.10427213 73.69561438 116.12248993 95.22655106 C116.12500133 97.8138681 116.12896637 100.40117999 116.13311768 102.98849487 C116.13900305 107.10143887 116.13902846 111.21434429 116.13444519 115.32728958 C116.13336675 116.85789589 116.13389552 118.38850428 116.13612366 119.91910934 C116.13867957 122.02919938 116.13488457 124.13918521 116.12939453 126.24926758 C116.12859894 127.43748611 116.12780334 128.62570465 116.12698364 129.84992981 C116.0124948 132.69004267 115.65331367 135.24008515 115 138 C113 136 113 136 112.75504684 133.75323009 C112.757309 132.81027741 112.75957115 131.86732473 112.76190186 130.89579773 C112.75940933 129.81484833 112.75691681 128.73389893 112.75434875 127.62019348 C112.76161484 126.42899399 112.76888092 125.23779449 112.77636719 124.01049805 C112.77595932 122.76002686 112.77555145 121.50955566 112.77513123 120.22119141 C112.77493322 117.49773431 112.77821852 114.77451351 112.78673553 112.05109215 C112.79909851 107.74386847 112.79217827 103.43681283 112.78131104 99.1295929 C112.75282046 86.88037668 112.74040947 74.63130366 112.77001953 62.38208008 C112.78620514 55.61936985 112.78106943 48.85702515 112.75222325 42.09435302 C112.73792434 38.51523561 112.73491802 34.93687864 112.75844574 31.35779381 C112.78469469 27.36392851 112.76480139 23.3715675 112.74121094 19.37768555 C112.76425545 17.59999535 112.76425545 17.59999535 112.7877655 15.78639221 C112.85324364 9.1945685 112.85324364 9.1945685 109.60440063 3.76760864 C105.29733706 1.04628664 100.52857249 1.29662811 95.58837891 1.34057617 C94.55362427 1.33009247 93.51886963 1.31960876 92.45275879 1.30880737 C89.04372075 1.28008156 85.63569977 1.2863464 82.2265625 1.29296875 C79.85857878 1.27985231 77.49060625 1.26454826 75.12265015 1.24714661 C68.89851994 1.20727802 62.6746823 1.19710488 56.45043945 1.19311523 C50.0957755 1.18378744 43.74128369 1.146376 37.38671875 1.11132812 C24.92448722 1.04673308 12.46238429 1.01350861 0 1 C0 0.67 0 0.34 0 0 Z " fill="#3A37F8" transform="translate(359,260)"/>
<path d="M0 0 C2.67086396 2.67086396 3.2306737 5.65217806 4.25 9.1875 C6.36674532 16.27455725 8.92400396 23.06487549 11.765625 29.890625 C12.71511107 32.28236838 13.47831655 34.49095103 14 37 C14.66 37 15.32 37 16 37 C16.38671875 38.14597656 16.7734375 39.29195312 17.171875 40.47265625 C18.95202939 45.2096596 21.45248767 49.24075428 24.25 53.4375 C24.74161621 54.18467285 25.23323242 54.9318457 25.73974609 55.70166016 C29.26012886 61.00477863 32.95542257 66.08342652 37 71 C37.60328125 71.78632812 38.2065625 72.57265625 38.828125 73.3828125 C59.61762166 99.9648025 88.72349382 122.40240056 121 133 C122.88017563 133.82158935 124.75513313 134.65521166 126.625 135.5 C132.65382293 138.06111651 138.51844068 139.23002753 145 140 C145 140.66 145 141.32 145 142 C147.97 142.33 150.94 142.66 154 143 C151 145 151 145 147.83203125 144.63671875 C146.48776843 144.33964693 145.14809211 144.02139803 143.8125 143.6875 C142.70503418 143.41498413 142.70503418 143.41498413 141.57519531 143.13696289 C111.08684727 135.19013313 84.96922843 120.086022 61 100 C60.19304687 99.32710937 59.38609375 98.65421875 58.5546875 97.9609375 C40.34030458 82.40128246 26.37889228 62.9623943 15 42 C14.23236328 40.6078125 14.23236328 40.6078125 13.44921875 39.1875 C10.05815188 32.75269925 7.33279728 26.07958069 4.6875 19.3125 C4.33751953 18.43327881 3.98753906 17.55405762 3.62695312 16.64819336 C1.48591572 11.03219313 0.41940347 5.99929317 0 0 Z " fill="#3D37EC" transform="translate(305,604)"/>
<path d="M0 0 C0.598125 0.78375 1.19625 1.5675 1.8125 2.375 C4.10419922 5.12503906 5.65859131 6.84774059 9.30569744 7.26171303 C10.2173507 7.26724379 11.12900396 7.27277454 12.06828308 7.2784729 C13.63950172 7.29521812 13.63950172 7.29521812 15.24246216 7.31230164 C16.96552078 7.31554192 16.96552078 7.31554192 18.72338867 7.31884766 C19.9332695 7.32889328 21.14315033 7.3389389 22.38969421 7.34928894 C25.70763003 7.37490505 29.02539437 7.3917454 32.34338927 7.40471697 C35.81078839 7.42033685 39.27810055 7.44713069 42.74543762 7.4727478 C49.31142538 7.5195559 55.87742945 7.55629013 62.44349891 7.58942068 C69.91869153 7.62762776 77.39379685 7.67704159 84.86891592 7.72740483 C100.24588087 7.83075487 115.62289474 7.92000523 131 8 C127.40381936 10.39745376 125.64606151 10.3015298 121.36254883 10.40966797 C120.69193861 10.42874332 120.02132839 10.44781868 119.33039665 10.46747208 C117.10190185 10.52754148 114.87339081 10.57284879 112.64453125 10.6171875 C111.06939436 10.65477927 109.49426524 10.69269808 107.91914368 10.73092651 C92.07007263 11.09375777 76.21952573 11.15370516 60.36694336 11.13037109 C56.41104479 11.12456959 52.45521259 11.12804514 48.49931622 11.13394356 C45.37371837 11.13758191 42.24813596 11.1363974 39.12253761 11.13381577 C37.66320601 11.13316093 36.20387289 11.13392269 34.74454308 11.13629532 C8.0504386 11.17034308 8.0504386 11.17034308 3 8 C0.20769639 5.00824613 0 4.29396797 0 0 Z " fill="#3C34FA" transform="translate(531,600)"/>
<path d="M0 0 C6.30764511 2.96650461 10.63154497 7.27256075 15.4375 12.25 C16.16904297 12.99507813 16.90058594 13.74015625 17.65429688 14.5078125 C19.44326725 16.33186072 21.22480646 18.16255817 23 20 C22.505 21.485 22.505 21.485 22 23 C19.33400843 20.33891817 16.67402448 17.67247961 14.02734375 14.9921875 C12.997419 13.95310204 11.96747085 12.91403977 10.9375 11.875 C10.42123047 11.35035156 9.90496094 10.82570313 9.37304688 10.28515625 C4.7935693 5.2675275 4.7935693 5.2675275 -1.18359375 2.6015625 C-1.92738281 2.60929687 -2.67117188 2.61703125 -3.4375 2.625 C-4.54931641 2.61339844 -4.54931641 2.61339844 -5.68359375 2.6015625 C-11.56475056 3.61316114 -15.38186729 8.1008513 -19.375 12.1875 C-20.23544922 13.05761719 -20.23544922 13.05761719 -21.11328125 13.9453125 C-24.69185226 17.5888009 -28.15972795 21.29967472 -31.4375 25.21875 C-35.61671166 29.98305129 -40.35016575 34.20608494 -45 38.5 C-52.17945104 45.15943365 -59.12871853 52.02443264 -66 59 C-66.495 57.515 -66.495 57.515 -67 56 C-64.05226582 53.00292183 -61.09808792 50.01239506 -58.13769531 47.02783203 C-57.13100272 46.01106601 -56.12611034 44.99251438 -55.12304688 43.97216797 C-53.68305629 42.50798782 -52.23676744 41.05029795 -50.7890625 39.59375 C-49.91975098 38.71396484 -49.05043945 37.83417969 -48.15478516 36.92773438 C-46 35 -46 35 -44 35 C-43.79076904 34.46697266 -43.58153809 33.93394531 -43.3659668 33.38476562 C-41.45922973 30.0558992 -38.83901641 27.53383657 -36.14453125 24.84375 C-35.56466965 24.25960327 -34.98480804 23.67545654 -34.38737488 23.0736084 C-33.16013508 21.84063446 -31.93027783 20.61026102 -30.69799805 19.38232422 C-28.82774377 17.51521812 -26.97117369 15.63522888 -25.11523438 13.75390625 C-23.91747887 12.55387629 -22.71893576 11.35463182 -21.51953125 10.15625 C-20.97134232 9.59885132 -20.42315338 9.04145264 -19.85835266 8.46716309 C-14.22530972 2.89987841 -8.28270426 -1.59581691 0 0 Z " fill="#4340F8" transform="translate(621,260)"/>
<path d="M0 0 C3.84444633 1.58445534 6.2772398 4.02974381 9.19580078 6.95288086 C9.70035797 7.4555397 10.20491516 7.95819855 10.72476196 8.47608948 C12.38653408 10.13416554 14.04101016 11.79931745 15.6953125 13.46484375 C16.85029216 14.62101597 18.00564222 15.77681827 19.16134644 16.93226624 C21.58024042 19.35272306 23.99574133 21.77649878 26.40869141 24.20288086 C29.50168463 27.31287302 32.60122912 30.41623249 35.70311165 33.51735592 C38.08828775 35.90280393 40.47084867 38.29084934 42.85253525 40.67978096 C43.99461855 41.82504598 45.13730813 42.96970676 46.28061295 44.11375237 C47.87727088 45.71257857 49.47059249 47.31465481 51.06298828 48.91772461 C51.97025665 49.82880478 52.87752502 50.73988495 53.81228638 51.67857361 C56 54 56 54 58 57 C57.67 57.99 57.34 58.98 57 60 C53 55.25 53 55.25 53 53 C52.4225 52.7525 51.845 52.505 51.25 52.25 C48.67060021 50.81700012 46.93878408 49.21575324 45 47 C45 46.34 45 45.68 45 45 C44.46890625 44.79375 43.9378125 44.5875 43.390625 44.375 C39.99226564 42.42038808 37.48944072 39.77876283 34.75 37 C33.91855469 36.18015625 33.91855469 36.18015625 33.0703125 35.34375 C29 31.2533867 29 31.2533867 29 29 C28.46084961 28.78537109 27.92169922 28.57074219 27.36621094 28.34960938 C24.14930168 26.51478949 21.72860745 24.01414382 19.140625 21.40625 C18.59138367 20.85892212 18.04214233 20.31159424 17.47625732 19.74768066 C16.32074141 18.5935222 15.16773315 17.43684833 14.01708984 16.27783203 C12.249265 14.49926054 10.4709787 12.73165237 8.69140625 10.96484375 C7.56967029 9.84178692 6.44855449 8.71811024 5.328125 7.59375 C4.79382874 7.0635022 4.25953247 6.53325439 3.70904541 5.98693848 C0 2.22993854 0 2.22993854 0 0 Z " fill="#413CF7" transform="translate(645,283)"/>
<path d="M0 0 C0 3.76642115 -1.353273 4.73966595 -3.90966797 7.3269043 C-4.47572754 7.87902588 -5.04178711 8.43114746 -5.625 9 C-6.21039551 9.57596924 -6.79579102 10.15193848 -7.39892578 10.74536133 C-23.84643072 26.643741 -43.81513256 39.66243361 -64.625 49.0625 C-65.30038818 49.37405029 -65.97577637 49.68560059 -66.67163086 50.0065918 C-69.43281182 51.20991481 -71.42987378 52.07330194 -74.4609375 51.68359375 C-74.96882812 51.45800781 -75.47671875 51.23242188 -76 51 C-71.3347295 48.58405635 -66.76443814 46.49093675 -61.8203125 44.7265625 C-59.77240465 43.96541929 -59.77240465 43.96541929 -57.1875 42.3125 C-55 41 -55 41 -52 41 C-52 40.34 -52 39.68 -52 39 C-51.175 38.63390625 -50.35 38.2678125 -49.5 37.890625 C-30.80142991 29.12567027 -14.15008484 14.94108338 0 0 Z " fill="#382DCA" transform="translate(652,689)"/>
<path d="M0 0 C2.44479423 2.44479423 2.47479253 3.76406843 3.125 7.125 C7.38465378 25.00263784 18.54226195 40.35508481 33.578125 50.7890625 C39.18562688 54.22762497 45.07523655 57.15107119 51 60 C47.29218328 61.23593891 46.32489747 60.5678132 42.8125 59.0625 C41.46091797 58.49208984 41.46091797 58.49208984 40.08203125 57.91015625 C39.39496094 57.60980469 38.70789063 57.30945313 38 57 C38 56.34 38 55.68 38 55 C36.97132813 54.65582031 36.97132813 54.65582031 35.921875 54.3046875 C20.3341747 47.34440421 9.81984595 32.04432141 3 17 C0.98208962 11.38432058 -0.48791813 6.0176569 0 0 Z " fill="#3D39F8" transform="translate(474,576)"/>
<path d="M0 0 C5.57741665 3.33341429 9.17124163 7.81559603 11.27734375 13.9609375 C12.46795254 20.75781097 10.79575576 26.9332644 7.17578125 32.72265625 C4.37367033 36.45579112 1.77346666 37.91532752 -2.72265625 38.9609375 C-0.54838702 36.78666827 1.62114263 34.64988137 3.90234375 32.5859375 C8.0332622 28.02018553 8.74516066 23.2552994 8.59375 17.26953125 C7.88680238 12.11143192 5.55223497 8.27028524 1.96484375 4.5859375 C-4.20212428 0.85707311 -9.83483182 0.39267146 -16.72265625 1.9609375 C-20.02366756 3.36018695 -20.02366756 3.36018695 -22.72265625 4.9609375 C-23.71265625 5.2909375 -24.70265625 5.6209375 -25.72265625 5.9609375 C-25.72265625 5.3009375 -25.72265625 4.6409375 -25.72265625 3.9609375 C-18.06075849 -1.71454232 -9.10310555 -3.47406898 0 0 Z " fill="#423CFB" transform="translate(627.72265625,321.0390625)"/>
<path d="M0 0 C0.66 0 1.32 0 2 0 C2.02515393 4.15852493 2.04306897 8.31700684 2.05493164 12.47558594 C2.05988898 13.88347141 2.06665686 15.29135194 2.07543945 16.69921875 C2.133057 26.18916799 1.82393888 35.53817205 1 45 C-1.57192348 41.14179624 -1.2717464 37.11481457 -1.23046875 32.65625 C-1.23001053 31.85014282 -1.22955231 31.04403564 -1.2290802 30.21350098 C-1.2260645 28.5122734 -1.2181986 26.81104842 -1.20581055 25.10986328 C-1.18756553 22.5093403 -1.18530093 19.90917405 -1.18554688 17.30859375 C-1.18063072 15.65364276 -1.17480198 13.99869418 -1.16796875 12.34375 C-1.16685593 11.56761353 -1.1657431 10.79147705 -1.16459656 9.99182129 C-1.13392582 6.49414682 -0.93698893 3.36550652 0 0 Z " fill="#4643FD" transform="translate(530,496)"/>
<path d="M0 0 C0.99 0.33 1.98 0.66 3 1 C2.56131592 1.43344727 2.12263184 1.86689453 1.6706543 2.31347656 C-0.32638508 4.28965569 -2.31946834 6.26977938 -4.3125 8.25 C-5.00279297 8.93191406 -5.69308594 9.61382812 -6.40429688 10.31640625 C-7.07138672 10.98027344 -7.73847656 11.64414062 -8.42578125 12.328125 C-9.03848877 12.9355957 -9.65119629 13.54306641 -10.2824707 14.16894531 C-15.58337952 19.82023403 -16.12474841 24.15752157 -16.5625 31.75 C-16.60568359 32.44738281 -16.64886719 33.14476562 -16.69335938 33.86328125 C-16.79889596 35.57531922 -16.8998991 37.28763561 -17 39 C-17.66 39 -18.32 39 -19 39 C-20.48344704 31.13773067 -20.02586553 23.77230133 -16.1875 16.625 C-13.924352 13.90922241 -11.56422834 11.43272945 -9 9 C-8.1646875 8.1028125 -8.1646875 8.1028125 -7.3125 7.1875 C-6 6 -6 6 -4 6 C-3.566875 5.071875 -3.566875 5.071875 -3.125 4.125 C-2 2 -2 2 0 0 Z " fill="#4440FA" transform="translate(549,321)"/>
<path d="M0 0 C0.96012826 2.54117779 1.1679763 3.61344366 0.06640625 6.1484375 C-5.01887208 13.67729113 -12.08083585 20.28302773 -21 23 C-23.234375 22.59765625 -23.234375 22.59765625 -25 22 C-18.60992908 18.24113475 -18.60992908 18.24113475 -15.3125 16.9375 C-12.85533403 15.94135164 -11.10088472 14.59377462 -9 13 C-8.34 13 -7.68 13 -7 13 C-6.72414063 12.43796875 -6.44828125 11.8759375 -6.1640625 11.296875 C-4.95631972 8.91381206 -3.67823191 6.5820992 -2.375 4.25 C-1.92898438 3.45078125 -1.48296875 2.6515625 -1.0234375 1.828125 C-0.68570313 1.22484375 -0.34796875 0.6215625 0 0 Z " fill="#3F3CF8" transform="translate(702,582)"/>
<path d="M0 0 C1 3 1 3 -0.046875 5.20703125 C-4.89023598 12.61648485 -10.18940815 19.58063631 -15.75927734 26.45214844 C-16.93485707 27.91873157 -18.07222051 29.41571062 -19.20703125 30.9140625 C-19.79871094 31.60242188 -20.39039063 32.29078125 -21 33 C-21.66 33 -22.32 33 -23 33 C-21.41662549 29.32553851 -19.1227918 26.68794062 -16.5 23.6875 C-10.33288495 16.49044138 -4.25049963 8.50099926 0 0 Z " fill="#372DCC" transform="translate(677,655)"/>
<path d="M0 0 C0.99 0.66 1.98 1.32 3 2 C1.35 3.32 -0.3 4.64 -2 6 C-2 5.34 -2 4.68 -2 4 C-3.134375 4.5775 -4.26875 5.155 -5.4375 5.75 C-6.95687868 6.50294254 -8.47781563 7.25274585 -10 8 C-10.79019531 8.39316406 -11.58039062 8.78632812 -12.39453125 9.19140625 C-13.17183594 9.56136719 -13.94914063 9.93132813 -14.75 10.3125 C-15.46671875 10.65925781 -16.1834375 11.00601563 -16.921875 11.36328125 C-19.35223221 12.10792077 -20.63150654 11.82683893 -23 11 C-20.34315599 9.64446734 -17.67522209 8.31871824 -15 7 C-14.40509766 6.70013184 -13.81019531 6.40026367 -13.19726562 6.09130859 C-11.20064137 5.08852641 -9.19503657 4.10572782 -7.1875 3.125 C-6.52935303 2.79040771 -5.87120605 2.45581543 -5.19311523 2.11108398 C-3.29296875 1.1953125 -3.29296875 1.1953125 0 0 Z " fill="#403DF2" transform="translate(674,623)"/>
<path d="M0 0 C0.66 0 1.32 0 2 0 C2.95377059 9.43459553 3.10226076 17.670132 1 27 C0.67 27 0.34 27 0 27 C0 18.09 0 9.18 0 0 Z " fill="#4341FA" transform="translate(703,344)"/>
<path d="M0 0 C0.66 0.33 1.32 0.66 2 1 C1.46260944 2.65420222 0.89413992 4.29833295 0.3125 5.9375 C-0.00074219 6.85402344 -0.31398438 7.77054688 -0.63671875 8.71484375 C-2 11 -2 11 -4.5 11.75 C-5.7375 11.87375 -5.7375 11.87375 -7 12 C-9.23408113 12.99083967 -9.23408113 12.99083967 -11 14 C-11 11 -11 11 -9.35546875 9.31640625 C-8.64003906 8.73761719 -7.92460938 8.15882813 -7.1875 7.5625 C-4.33911593 5.2433239 -2.103681 3.01947904 0 0 Z " fill="#3D37EF" transform="translate(700,602)"/>
<path d="M0 0 C2.83082083 2.83082083 6 6.89167162 6 11 C6.53625 11.268125 7.0725 11.53625 7.625 11.8125 C9.35905434 12.67952717 11.06435702 13.60474831 12.75 14.5625 C16.63763567 16.28203116 19.78090164 16.63628462 24 17 C24 17.33 24 17.66 24 18 C17.40726719 18.5493944 12.47088363 17.89412241 7 14 C4.01171727 11.16340674 1.42756397 7.89335629 0 4 C0 2.68 0 1.36 0 0 Z " fill="#3C39FC" transform="translate(597,344)"/>
<path d="M0 0 C2.34234336 3.8329255 2.85492114 8.01721272 3.5625 12.375 C3.75102539 13.48875 3.75102539 13.48875 3.94335938 14.625 C4.30174257 16.74903026 4.65186421 18.87426956 5 21 C5.19464844 22.16789063 5.38929688 23.33578125 5.58984375 24.5390625 C5.72519531 25.35117187 5.86054688 26.16328125 6 27 C5.34 27 4.68 27 4 27 C1.38458643 17.75558222 -0.17112777 9.62118375 0 0 Z " fill="#3C38F3" transform="translate(300,576)"/>
<path d="M0 0 C0.33 0 0.66 0 1 0 C1.1967332 2.8329581 1.38259641 5.66596323 1.5625 8.5 C1.61857422 9.29148437 1.67464844 10.08296875 1.73242188 10.8984375 C2.05189484 16.09519779 1.79686914 20.85281562 1 26 C0.67 26 0.34 26 0 26 C-0.83866595 17.68822141 -1.44049018 9.35635784 -1 1 C-0.67 0.67 -0.34 0.34 0 0 Z " fill="#4440FC" transform="translate(530,542)"/>
<path d="M0 0 C0.33 0 0.66 0 1 0 C1.88370974 6.48708411 2.00278495 12.53919765 1.5625 19.0625 C1.51029297 19.92810547 1.45808594 20.79371094 1.40429688 21.68554688 C1.2763539 23.79079032 1.13916029 25.89546828 1 28 C0.67 28 0.34 28 0 28 C-1.98984772 5.96954315 -1.98984772 5.96954315 0 0 Z " fill="#3C39FA" transform="translate(473,546)"/>
<path d="M0 0 C0 0.66 0 1.32 0 2 C-2.22667765 2.67493341 -4.45645977 3.33963044 -6.6875 4 C-8.54955078 4.556875 -8.54955078 4.556875 -10.44921875 5.125 C-13.5010019 5.87703457 -15.88898362 6.19034899 -19 6 C-18 4 -18 4 -14.98046875 2.9296875 C-13.10294922 2.40761719 -13.10294922 2.40761719 -11.1875 1.875 C-9.94355469 1.52179687 -8.69960938 1.16859375 -7.41796875 0.8046875 C-4 0 -4 0 0 0 Z " fill="#403BF7" transform="translate(650,635)"/>
<path d="M0 0 C0.33 0 0.66 0 1 0 C1 7.59 1 15.18 1 23 C0.67 23 0.34 23 0 23 C-0.06058594 22.27554688 -0.12117187 21.55109375 -0.18359375 20.8046875 C-0.69506515 14.71299568 -0.69506515 14.71299568 -1.6875 8.6875 C-2.07707276 5.33717425 -1.25253359 3.09449476 0 0 Z " fill="#403DFC" transform="translate(530,576)"/>
<path d="M0 0 C0.33 0.99 0.66 1.98 1 3 C-1.30074488 7.01958931 -4.13994166 9.63367886 -8.375 11.4375 C-9.674375 11.7159375 -9.674375 11.7159375 -11 12 C-8.80161026 9.80161026 -6.59978365 7.60931261 -4.375 5.4375 C-1.89526499 3.04154383 -1.89526499 3.04154383 0 0 Z " fill="#3B36F9" transform="translate(636,348)"/>
<path d="M0 0 C-0.49371094 0.30292969 -0.98742187 0.60585938 -1.49609375 0.91796875 C-5.69897215 3.548514 -5.69897215 3.548514 -7.9375 7.8125 C-7.958125 8.534375 -7.97875 9.25625 -8 10 C-8.66 8.68 -9.32 7.36 -10 6 C-5.17857143 -1.55357143 -5.17857143 -1.55357143 0 0 Z " fill="#4442F2" transform="translate(309,262)"/>
<path d="M0 0 C3.84685385 1.24762828 6.02929405 2.3870391 8 6 C7.67 6.99 7.34 7.98 7 9 C5.14453125 6.70507812 5.14453125 6.70507812 3.2890625 4.41015625 C2.0333609 2.86733563 2.0333609 2.86733563 0 2 C0 1.34 0 0.68 0 0 Z " fill="#3F3BF6" transform="translate(465,260)"/>
<path d="M0 0 C0.99 0.33 1.98 0.66 3 1 C2.0479279 2.00596297 1.08812654 3.00461563 0.125 4 C-0.40867187 4.556875 -0.94234375 5.11375 -1.4921875 5.6875 C-3 7 -3 7 -5 7 C-3.70700306 4.11562221 -2.34058637 2.12780579 0 0 Z " fill="#403DF7" transform="translate(589,281)"/>
<path d="M0 0 C0.66 0.33 1.32 0.66 2 1 C1.01 3.97 0.02 6.94 -1 10 C-1.33 8.68 -1.66 7.36 -2 6 C-2.33 5.34 -2.66 4.68 -3 4 C-2.01 2.68 -1.02 1.36 0 0 Z " fill="#4842EC" transform="translate(700,602)"/>
<path d="M0 0 C0.66 0.33 1.32 0.66 2 1 C-0.31 3.64 -2.62 6.28 -5 9 C-5.33 8.34 -5.66 7.68 -6 7 C-4.31525278 3.63050557 -3.1808342 2.12055614 0 0 Z " fill="#3B36F9" transform="translate(538,333)"/>
<path d="M0 0 C1 4 1 4 1 4 Z " fill="#5958FE" transform="translate(599,338)"/>
<path d="M0 0 C2 1 2 1 2 1 Z " fill="#4F47CF" transform="translate(608,727)"/>
<path d="M0 0 C2 1 2 1 2 1 Z " fill="#5D5CFA" transform="translate(676,607)"/>
<path d="" fill="#4C4D4C" transform="translate(0,0)"/>
<path d="" fill="#4B4C4D" transform="translate(0,0)"/>
<path d="" fill="#5451E3" transform="translate(0,0)"/>
<path d="" fill="#5951E3" transform="translate(0,0)"/>
<path d="" fill="#5951E1" transform="translate(0,0)"/>
<path d="" fill="#5850E9" transform="translate(0,0)"/>
<path d="" fill="#5954E6" transform="translate(0,0)"/>
<path d="" fill="#5753EB" transform="translate(0,0)"/>
<path d="" fill="#574DD3" transform="translate(0,0)"/>
<path d="" fill="#5855EA" transform="translate(0,0)"/>
<path d="" fill="#5B56EA" transform="translate(0,0)"/>
<path d="" fill="#5B5AFB" transform="translate(0,0)"/>
<path d="" fill="#5854ED" transform="translate(0,0)"/>
<path d="" fill="#5957EF" transform="translate(0,0)"/>
<path d="" fill="#5B55EB" transform="translate(0,0)"/>
<path d="" fill="#5C56EA" transform="translate(0,0)"/>
<path d="" fill="#5A55EE" transform="translate(0,0)"/>
<path d="" fill="#5A58FC" transform="translate(0,0)"/>
<path d="" fill="#5B59FB" transform="translate(0,0)"/>
<path d="" fill="#5B57F2" transform="translate(0,0)"/>
<path d="" fill="#5B59F2" transform="translate(0,0)"/>
<path d="" fill="#5E5FFF" transform="translate(0,0)"/>
<path d="" fill="#5C5DFA" transform="translate(0,0)"/>
<path d="" fill="#5D5CFC" transform="translate(0,0)"/>
<path d="" fill="#5D5AFC" transform="translate(0,0)"/>
<path d="" fill="#5A5EF5" transform="translate(0,0)"/>
<path d="" fill="#5C59F5" transform="translate(0,0)"/>
<path d="" fill="#5752FE" transform="translate(0,0)"/>
<path d="" fill="#5954FC" transform="translate(0,0)"/>
<path d="" fill="#5756FF" transform="translate(0,0)"/>
<path d="" fill="#585AFF" transform="translate(0,0)"/>
<path d="" fill="#5A56FF" transform="translate(0,0)"/>
<path d="" fill="#5F58FD" transform="translate(0,0)"/>
<path d="" fill="#5D57FE" transform="translate(0,0)"/>
<path d="" fill="#5959F5" transform="translate(0,0)"/>
<path d="" fill="#5B5CF9" transform="translate(0,0)"/>
<path d="" fill="#5C5AF1" transform="translate(0,0)"/>
<path d="" fill="#5C5BF6" transform="translate(0,0)"/>
<path d="" fill="#5E5BEF" transform="translate(0,0)"/>
<path d="" fill="#5E5CEF" transform="translate(0,0)"/>
<path d="" fill="#5D59EC" transform="translate(0,0)"/>
<path d="" fill="#605DED" transform="translate(0,0)"/>
<path d="" fill="#5C58F0" transform="translate(0,0)"/>
</svg>
