<svg width="30" height="39" viewBox="0 0 30 39" fill="none" xmlns="http://www.w3.org/2000/svg">
<path d="M8.02496 4.45597C7.90592 4.39342 7.8464 4.36215 7.81262 4.31291C7.78383 4.27094 7.76825 4.21621 7.77061 4.16537C7.77339 4.10572 7.80598 4.05038 7.87117 3.9397C8.69991 2.53268 9.94429 1.41238 11.4375 0.73614C13.048 0.00676416 14.8559 -0.164303 16.5747 0.250042C18.2934 0.664388 19.8248 1.64045 20.926 3.02357C21.9471 4.30592 22.5443 5.87019 22.6409 7.50027C22.6484 7.6285 22.6522 7.69261 22.6275 7.74698C22.6065 7.79331 22.5677 7.83492 22.5229 7.85916C22.4704 7.88761 22.4032 7.88832 22.2687 7.88975L20.6577 7.90687C20.5226 7.90831 20.4551 7.90903 20.4052 7.88552C20.3591 7.86385 20.3256 7.83327 20.2999 7.78937C20.2719 7.74174 20.2662 7.66976 20.2546 7.52581C20.1665 6.42644 19.7529 5.37486 19.0623 4.50751C18.2914 3.53933 17.2195 2.85609 16.0163 2.56605C14.8132 2.27601 13.5477 2.39575 12.4203 2.90632C11.4104 3.3637 10.563 4.1113 9.98364 5.04975C9.90777 5.17263 9.86984 5.23408 9.82327 5.26374C9.78034 5.29109 9.73661 5.30305 9.68574 5.30136C9.63056 5.29952 9.57078 5.26811 9.45122 5.2053L8.02496 4.45597Z" fill="#3838EC"/>
<circle cx="7.94086" cy="6.84467" r="1.23529" fill="#3838EC"/>
<path d="M28.4004 9.84521C28.9602 9.84521 29.2402 9.84465 29.4541 9.95361C29.6423 10.0495 29.7948 10.203 29.8906 10.3911C29.9996 10.605 30 10.8848 30 11.4448V28.438C30 31.7979 29.9996 33.4778 29.3457 34.7612C28.7705 35.8902 27.8526 36.8081 26.7236 37.3833C25.4402 38.0372 23.7604 38.0376 20.4004 38.0376H9.59961C6.23964 38.0376 4.55977 38.0372 3.27637 37.3833C2.14739 36.8081 1.22954 35.8902 0.654297 34.7612C0.000425248 33.4778 8.6246e-10 31.7979 0 28.438V11.4448C0 10.8848 0.000407825 10.605 0.109375 10.3911C0.205248 10.203 0.357736 10.0495 0.545898 9.95361C0.75976 9.84465 1.03982 9.84521 1.59961 9.84521H28.4004ZM7.23633 12.6421C7.10186 12.6422 7.03424 12.6425 6.98145 12.6704C6.93649 12.6942 6.89749 12.7356 6.87598 12.7817C6.85076 12.8358 6.85404 12.8998 6.86035 13.0278C6.94082 14.6588 7.52196 16.2296 8.53027 17.522C9.61783 18.9159 11.1399 19.9071 12.8545 20.3384C14.569 20.7696 16.3785 20.6162 17.9961 19.9028C19.4958 19.2414 20.7512 18.1335 21.5938 16.7349C21.6599 16.6251 21.6928 16.5697 21.6963 16.5103C21.6992 16.4594 21.6846 16.4041 21.6562 16.3618C21.6229 16.3123 21.5637 16.28 21.4453 16.2163L20.0264 15.4536C19.9075 15.3897 19.8481 15.3574 19.793 15.355C19.7422 15.3528 19.6984 15.3643 19.6553 15.3911C19.6084 15.4203 19.5693 15.4819 19.4922 15.604C18.9036 16.5364 18.0493 17.2758 17.0352 17.7231C15.9028 18.2226 14.6358 18.3297 13.4355 18.0278C12.2354 17.7259 11.1705 17.0319 10.4092 16.0562C9.72718 15.182 9.32336 14.1261 9.24609 13.0259C9.236 12.8822 9.23152 12.8101 9.2041 12.7622C9.17883 12.7181 9.14533 12.6876 9.09961 12.6655C9.04994 12.6416 8.98241 12.641 8.84766 12.6411L7.23633 12.6421ZM21.5654 12.5933C20.8832 12.5865 20.3241 13.1347 20.3174 13.8169C20.3108 14.499 20.8589 15.0572 21.541 15.064C22.223 15.0705 22.7812 14.5233 22.7881 13.8413C22.7948 13.1592 22.2474 12.6002 21.5654 12.5933Z" fill="#3838EC"/>
</svg>
