<svg width="42" height="42" viewBox="0 0 42 42" fill="none" xmlns="http://www.w3.org/2000/svg">
<path d="M32.1797 39.7503V25.3271" stroke="#4147D5" stroke-width="3" stroke-linecap="round" stroke-linejoin="round"/>
<path d="M24.9668 32.5393H39.39" stroke="#4147D5" stroke-width="3" stroke-linecap="round" stroke-linejoin="round"/>
<path d="M2.85251 13.2329C3.03036 14.8952 4.36731 16.2322 6.0288 16.4174C7.26291 16.5549 8.52999 16.6731 9.82188 16.6731C11.1138 16.6731 12.3809 16.5549 13.615 16.4174C15.2765 16.2322 16.6134 14.8952 16.7913 13.2329C16.9225 12.0058 17.0334 10.7459 17.0334 9.46155C17.0334 8.17713 16.9225 6.91728 16.7913 5.69016C16.6134 4.02786 15.2765 2.6909 13.615 2.5057C12.3809 2.36815 11.1138 2.25 9.82188 2.25C8.52999 2.25 7.26291 2.36815 6.0288 2.5057C4.36731 2.6909 3.03036 4.02786 2.85251 5.69016C2.72122 6.91728 2.61035 8.17713 2.61035 9.46155C2.61035 10.7459 2.72122 12.0058 2.85251 13.2329Z" fill="#D7E0FF"/>
<path d="M2.85251 36.3102C3.03036 37.9725 4.36731 39.3093 6.0288 39.4944C7.26291 39.6321 8.52999 39.7503 9.82188 39.7503C11.1138 39.7503 12.3809 39.6321 13.615 39.4944C15.2765 39.3093 16.6134 37.9725 16.7913 36.3102C16.9225 35.0829 17.0334 33.8232 17.0334 32.5386C17.0334 31.2543 16.9225 29.9944 16.7913 28.7673C16.6134 27.105 15.2765 25.7681 13.615 25.5829C12.3809 25.4453 11.1138 25.3271 9.82188 25.3271C8.52999 25.3271 7.26291 25.4453 6.0288 25.5829C4.36731 25.7681 3.03036 27.105 2.85251 28.7673C2.72122 29.9944 2.61035 31.2543 2.61035 32.5386C2.61035 33.8232 2.72122 35.0829 2.85251 36.3102Z" fill="#D7E0FF"/>
<path d="M25.2089 13.2329C25.3868 14.8952 26.7237 16.2322 28.3852 16.4174C29.6193 16.5549 30.8865 16.6731 32.1783 16.6731C33.4701 16.6731 34.7373 16.5549 35.9715 16.4174C37.6329 16.2322 38.97 14.8952 39.1476 13.2329C39.279 12.0058 39.39 10.7459 39.39 9.46155C39.39 8.17713 39.279 6.91728 39.1476 5.69016C38.97 4.02786 37.6329 2.6909 35.9715 2.5057C34.7373 2.36815 33.4701 2.25 32.1783 2.25C30.8865 2.25 29.6193 2.36815 28.3852 2.5057C26.7237 2.6909 25.3868 4.02786 25.2089 5.69016C25.0776 6.91728 24.9668 8.17713 24.9668 9.46155C24.9668 10.7459 25.0776 12.0058 25.2089 13.2329Z" fill="#D7E0FF"/>
<path d="M2.85251 13.2329C3.03036 14.8952 4.36731 16.2322 6.0288 16.4174C7.26291 16.5549 8.52999 16.6731 9.82188 16.6731C11.1138 16.6731 12.3809 16.5549 13.615 16.4174C15.2765 16.2322 16.6134 14.8952 16.7913 13.2329C16.9225 12.0058 17.0334 10.7459 17.0334 9.46155C17.0334 8.17713 16.9225 6.91728 16.7913 5.69016C16.6134 4.02786 15.2765 2.6909 13.615 2.5057C12.3809 2.36815 11.1138 2.25 9.82188 2.25C8.52999 2.25 7.26291 2.36815 6.0288 2.5057C4.36731 2.6909 3.03036 4.02786 2.85251 5.69016C2.72122 6.91728 2.61035 8.17713 2.61035 9.46155C2.61035 10.7459 2.72122 12.0058 2.85251 13.2329Z" stroke="#4147D5" stroke-width="3" stroke-linecap="round" stroke-linejoin="round"/>
<path d="M2.85251 36.3102C3.03036 37.9725 4.36731 39.3093 6.0288 39.4944C7.26291 39.6321 8.52999 39.7503 9.82188 39.7503C11.1138 39.7503 12.3809 39.6321 13.615 39.4944C15.2765 39.3093 16.6134 37.9725 16.7913 36.3102C16.9225 35.0829 17.0334 33.8232 17.0334 32.5386C17.0334 31.2543 16.9225 29.9944 16.7913 28.7673C16.6134 27.105 15.2765 25.7681 13.615 25.5829C12.3809 25.4453 11.1138 25.3271 9.82188 25.3271C8.52999 25.3271 7.26291 25.4453 6.0288 25.5829C4.36731 25.7681 3.03036 27.105 2.85251 28.7673C2.72122 29.9944 2.61035 31.2543 2.61035 32.5386C2.61035 33.8232 2.72122 35.0829 2.85251 36.3102Z" stroke="#4147D5" stroke-width="3" stroke-linecap="round" stroke-linejoin="round"/>
<path d="M25.2089 13.2329C25.3868 14.8952 26.7237 16.2322 28.3852 16.4174C29.6193 16.5549 30.8865 16.6731 32.1783 16.6731C33.4701 16.6731 34.7373 16.5549 35.9715 16.4174C37.6329 16.2322 38.97 14.8952 39.1476 13.2329C39.279 12.0058 39.39 10.7459 39.39 9.46155C39.39 8.17713 39.279 6.91728 39.1476 5.69016C38.97 4.02786 37.6329 2.6909 35.9715 2.5057C34.7373 2.36815 33.4701 2.25 32.1783 2.25C30.8865 2.25 29.6193 2.36815 28.3852 2.5057C26.7237 2.6909 25.3868 4.02786 25.2089 5.69016C25.0776 6.91728 24.9668 8.17713 24.9668 9.46155C24.9668 10.7459 25.0776 12.0058 25.2089 13.2329Z" stroke="#4147D5" stroke-width="3" stroke-linecap="round" stroke-linejoin="round"/>
</svg>
