<svg width="44" height="44" viewBox="0 0 44 44" fill="none" xmlns="http://www.w3.org/2000/svg">
<g clip-path="url(#clip0_4542_5516)">
<path d="M21.9993 41.6428C34.5707 41.6428 41.6422 34.5713 41.6422 21.9999C41.6422 9.42848 34.5707 2.35706 21.9993 2.35706C9.42787 2.35706 2.35645 9.42848 2.35645 21.9999C2.35645 34.5713 9.42787 41.6428 21.9993 41.6428Z" fill="#D7E0FF"/>
<path d="M21.9993 41.6428C34.5707 41.6428 41.6422 34.5713 41.6422 21.9999C41.6422 9.42848 34.5707 2.35706 21.9993 2.35706C9.42787 2.35706 2.35645 9.42848 2.35645 21.9999C2.35645 34.5713 9.42787 41.6428 21.9993 41.6428Z" stroke="#4147D5" stroke-width="3.14286" stroke-linecap="round" stroke-linejoin="round"/>
<path d="M6.21875 35.1215C13.5815 28.3474 20.817 25.0655 28.0813 23.9301C32.5596 23.2302 37.0485 23.346 41.5849 23.9622" stroke="#4147D5" stroke-width="3.14286" stroke-linecap="round" stroke-linejoin="round"/>
<path d="M2.58789 18.2246C10.5967 19.2448 17.9937 17.8231 23.9987 15.3988C29.496 13.1794 33.8269 10.1198 36.3927 7.32385" stroke="#4147D5" stroke-width="3.14286" stroke-linecap="round" stroke-linejoin="round"/>
<path d="M13.3232 3.76819C17.9514 7.29146 21.4323 11.2901 23.999 15.399C25.7673 18.23 27.1017 21.1133 28.0782 23.9297C30.2525 30.2 30.6534 36.1385 30.122 40.4275" stroke="#4147D5" stroke-width="3.14286" stroke-linecap="round" stroke-linejoin="round"/>
</g>
<defs>
<clipPath id="clip0_4542_5516">
<rect width="44" height="44" fill="white"/>
</clipPath>
</defs>
</svg>
