<svg width="39" height="48" viewBox="0 0 39 48" fill="none" xmlns="http://www.w3.org/2000/svg">
<path fill-rule="evenodd" clip-rule="evenodd" d="M36.3695 34.809C34.2771 35.624 32.6745 37.2246 32.6745 39.7965C32.6745 42.3685 34.2771 43.9691 36.3698 44.7841C35.6299 45.173 34.758 45.4093 33.8432 45.4434C24.9101 45.7751 16.0844 45.7751 7.15112 45.4434C3.90318 45.3226 2.0918 42.8471 2.0918 39.7965C2.0918 36.7463 3.90318 34.2705 7.15112 34.15C16.0844 33.8182 24.9101 33.8182 33.8432 34.15C34.758 34.1838 35.6299 34.4201 36.3695 34.809Z" fill="white"/>
<path fill-rule="evenodd" clip-rule="evenodd" d="M2.09798 39.4954C2.2135 36.5843 4.01093 34.2661 7.15141 34.1494C16.0847 33.8176 24.9103 33.8176 33.8436 34.1494C34.7513 34.1832 35.6168 34.4161 36.3526 34.7996C37.0806 26.1835 36.8383 17.7473 36.0656 9.13936C35.7596 5.73011 33.1088 2.94746 29.7204 2.45999C22.6058 1.43635 15.905 1.43635 8.79028 2.45999C5.40218 2.94746 2.75111 5.73011 2.44514 9.13936C1.53437 19.2875 1.4897 29.3238 2.09798 39.4954Z" fill="#D7E0FF"/>
<path d="M36.3695 34.809C34.2771 35.624 32.6745 37.2246 32.6745 39.7965C32.6745 42.3685 34.2771 43.9691 36.3698 44.7841C35.6299 45.173 34.758 45.4093 33.8432 45.4434C24.9101 45.7751 16.0844 45.7751 7.15112 45.4434C3.90318 45.3226 2.0918 42.8471 2.0918 39.7965C2.0918 36.7463 3.90318 34.2705 7.15112 34.15C16.0844 33.8182 24.9101 33.8182 33.8432 34.15C34.758 34.1838 35.6299 34.4201 36.3695 34.809Z" stroke="#4147D5" stroke-width="3.38462" stroke-linecap="round" stroke-linejoin="round"/>
<path d="M36.3526 34.7996C35.6168 34.4161 34.7513 34.1832 33.8436 34.1494C24.9103 33.8176 16.0847 33.8176 7.15141 34.1494C4.01093 34.2661 2.2135 36.5843 2.09798 39.4954C1.4897 29.3238 1.53437 19.2875 2.44514 9.13936C2.75111 5.73011 5.40218 2.94746 8.79028 2.45999C15.905 1.43635 22.6058 1.43635 29.7204 2.45999C33.1088 2.94746 35.7596 5.73011 36.0656 9.13936C36.8383 17.7473 37.0806 26.1836 36.3526 34.7996Z" stroke="#4147D5" stroke-width="3.38462" stroke-linecap="round" stroke-linejoin="round"/>
<path d="M22.728 15.6876H30.4073L22.248 27.2066H30.8873" stroke="#4147D5" stroke-width="3.38462" stroke-linecap="round" stroke-linejoin="round"/>
<path d="M7.67188 20.1441L11.208 9.53579C11.3893 8.99195 11.8982 8.62512 12.4715 8.62512C13.0447 8.62512 13.5537 8.99195 13.7349 9.53579L17.271 20.1441M8.95177 16.3044H15.9912" stroke="#4147D5" stroke-width="3.38462" stroke-linecap="round" stroke-linejoin="round"/>
</svg>
