<svg width="44" height="44" viewBox="0 0 44 44" fill="none" xmlns="http://www.w3.org/2000/svg">
<g clip-path="url(#clip0_4542_5547)">
<path d="M37.6535 13.015C35.8124 14.8561 32.8273 14.8561 30.9864 13.015C29.1453 11.174 29.1453 8.18906 30.9864 6.348C31.4969 5.83757 31.638 4.96835 31.1277 4.45792L30.8909 4.22117C28.4362 1.76645 26.0245 1.76645 22.0016 4.22117L20.6729 5.1496C14.6288 9.37297 9.37484 14.6269 5.15144 20.671L4.22288 21.9998C1.76815 26.0226 1.76815 28.4345 4.22288 30.8892L4.45948 31.1258C4.97 31.6363 5.83941 31.4949 6.34994 30.9844C8.19096 29.1434 11.1759 29.1434 13.0169 30.9844C14.858 32.8255 14.858 35.8103 13.0169 37.6514C12.5064 38.1621 12.3651 39.0314 12.8756 39.5418L13.1122 39.7785C15.5669 42.2334 17.9788 42.2334 22.0016 39.7785L23.3303 38.8501C29.3745 34.6267 34.6285 29.3726 38.8518 23.3284L39.7802 21.9998C42.2351 17.9769 42.2351 15.5652 39.7802 13.1105L39.5436 12.8737C39.0332 12.3633 38.1639 12.5046 37.6535 13.015Z" fill="#D7E0FF"/>
<path d="M37.6535 13.015C35.8124 14.8561 32.8273 14.8561 30.9864 13.015C29.1453 11.174 29.1453 8.18906 30.9864 6.348C31.4969 5.83757 31.638 4.96835 31.1277 4.45792L30.8909 4.22117C28.4362 1.76645 26.0245 1.76645 22.0016 4.22117L20.6729 5.1496C14.6288 9.37297 9.37484 14.6269 5.15144 20.671L4.22288 21.9998C1.76815 26.0226 1.76815 28.4345 4.22288 30.8892L4.45948 31.1258C4.97 31.6363 5.83941 31.4948 6.34994 30.9844C8.19096 29.1434 11.1759 29.1434 13.0169 30.9844C14.858 32.8255 14.858 35.8103 13.0169 37.6514C12.5064 38.1621 12.3651 39.0314 12.8756 39.5418L13.1122 39.7785C15.5669 42.2334 17.9788 42.2334 22.0016 39.7785L23.3303 38.8501C29.3745 34.6267 34.6285 29.3726 38.8518 23.3284L39.7802 21.9998C42.2351 17.9769 42.2351 15.5652 39.7802 13.1105L39.5436 12.8737C39.0332 12.3633 38.1639 12.5046 37.6535 13.015Z" stroke="#4147D5" stroke-width="3.14286" stroke-linecap="round" stroke-linejoin="round"/>
</g>
<defs>
<clipPath id="clip0_4542_5547">
<rect width="44" height="44" fill="white"/>
</clipPath>
</defs>
</svg>
